<?xml version="1.0" encoding="UTF-8" standalone="no"?>
<!DOCTYPE svg PUBLIC "-//W3C//DTD SVG 1.1//EN"
 "http://www.w3.org/Graphics/SVG/1.1/DTD/svg11.dtd">
<!-- Generated by graphviz version 2.36.0 (20140111.2315)
 -->
<!-- Title: svop Pages: 1 -->
<svg width="550pt" height="288pt"
 viewBox="0.00 0.00 550.14 288.40" xmlns="http://www.w3.org/2000/svg" xmlns:xlink="http://www.w3.org/1999/xlink">
<g id="graph0" class="graph" transform="scale(1 1) rotate(0) translate(4 284.397)">
<title>svop</title>
<polygon fill="white" stroke="none" points="-4,4 -4,-284.397 546.136,-284.397 546.136,4 -4,4"/>
<!-- stack -->
<g id="node1" class="node"><title>stack</title>
<text text-anchor="start" x="295.636" y="-258.697" font-family="Times,serif" font-size="14.00">stack</text>
<polygon fill="#ffcccc" stroke="none" points="326.136,-251.397 326.136,-273.397 344.136,-273.397 344.136,-251.397 326.136,-251.397"/>
<polygon fill="none" stroke="black" points="326.136,-251.397 326.136,-273.397 344.136,-273.397 344.136,-251.397 326.136,-251.397"/>
<text text-anchor="start" x="329.136" y="-258.697" font-family="Times,serif" font-size="14.00">...</text>
<polygon fill="#ffcccc" stroke="none" points="344.136,-251.397 344.136,-273.397 375.136,-273.397 375.136,-251.397 344.136,-251.397"/>
<polygon fill="none" stroke="black" points="344.136,-251.397 344.136,-273.397 375.136,-273.397 375.136,-251.397 344.136,-251.397"/>
<text text-anchor="start" x="347.136" y="-258.697" font-family="Times,serif" font-size="14.00">SV*</text>
</g>
<!-- sv -->
<g id="node2" class="node"><title>sv</title>
<polygon fill="none" stroke="black" points="326.136,-179.397 326.136,-201.397 394.136,-201.397 394.136,-179.397 326.136,-179.397"/>
<text text-anchor="start" x="329.636" y="-186.697" font-family="Times,serif" font-size="14.00">SV(magic)</text>
</g>
<!-- stack&#45;&gt;sv -->
<g id="edge1" class="edge"><title>stack:SV&#45;&gt;sv:SV</title>
<path fill="none" stroke="black" stroke-dasharray="5,2" d="M360.136,-250.397C360.136,-237.491 360.136,-222.996 360.136,-211.604"/>
<polygon fill="none" stroke="black" points="363.636,-211.419 360.136,-201.419 356.636,-211.419 363.636,-211.419"/>
</g>
<!-- carray -->
<g id="node3" class="node"><title>carray</title>
<text text-anchor="start" x="262.636" y="-114.697" font-family="Times,serif" font-size="14.00">C array</text>
<polygon fill="#cccccc" stroke="none" points="306.136,-107.397 306.136,-129.397 344.136,-129.397 344.136,-107.397 306.136,-107.397"/>
<polygon fill="none" stroke="black" points="306.136,-107.397 306.136,-129.397 344.136,-129.397 344.136,-107.397 306.136,-107.397"/>
<text text-anchor="start" x="309.136" y="-114.697" font-family="Times,serif" font-size="14.00">I32**</text>
<polygon fill="#cccccc" stroke="none" points="344.136,-107.397 344.136,-129.397 375.136,-129.397 375.136,-107.397 344.136,-107.397"/>
<polygon fill="none" stroke="black" points="344.136,-107.397 344.136,-129.397 375.136,-129.397 375.136,-107.397 344.136,-107.397"/>
<text text-anchor="start" x="347.136" y="-114.697" font-family="Times,serif" font-size="14.00">SV*</text>
<polygon fill="#cccccc" stroke="none" points="375.136,-107.397 375.136,-129.397 406.136,-129.397 406.136,-107.397 375.136,-107.397"/>
<polygon fill="none" stroke="black" points="375.136,-107.397 375.136,-129.397 406.136,-129.397 406.136,-107.397 375.136,-107.397"/>
<text text-anchor="start" x="378.136" y="-114.697" font-family="Times,serif" font-size="14.00">SV*</text>
<polygon fill="#cccccc" stroke="none" points="406.136,-107.397 406.136,-129.397 437.136,-129.397 437.136,-107.397 406.136,-107.397"/>
<polygon fill="none" stroke="black" points="406.136,-107.397 406.136,-129.397 437.136,-129.397 437.136,-107.397 406.136,-107.397"/>
<text text-anchor="start" x="409.136" y="-114.697" font-family="Times,serif" font-size="14.00">SV*</text>
</g>
<!-- sv&#45;&gt;carray -->
<g id="edge2" class="edge"><title>sv:SV&#45;&gt;carray:1</title>
<path fill="none" stroke="black" d="M360.136,-179.375C360.136,-169.929 360.136,-155.114 360.136,-140.72"/>
<polygon fill="black" stroke="black" points="363.636,-140.397 360.136,-130.397 356.636,-140.397 363.636,-140.397"/>
</g>
<!-- pattern -->
<g id="node4" class="node"><title>pattern</title>
<polygon fill="none" stroke="black" points="20.1363,-10.3969 20.1363,-59.3969 70.1363,-59.3969 70.1363,-10.3969 20.1363,-10.3969"/>
<text text-anchor="start" x="23.6363" y="-31.1969" font-family="Times,serif" font-size="14.00">anonlist</text>
<polygon fill="none" stroke="black" points="70.1363,-37.3969 70.1363,-59.3969 222.136,-59.3969 222.136,-37.3969 70.1363,-37.3969"/>
<text text-anchor="start" x="135.136" y="-44.6969" font-family="Times,serif" font-size="14.00">null</text>
<polygon fill="none" stroke="black" points="222.136,-10.3969 222.136,-59.3969 259.136,-59.3969 259.136,-10.3969 222.136,-10.3969"/>
<text text-anchor="start" x="225.136" y="-31.1969" font-family="Times,serif" font-size="14.00">rv2cv</text>
<polygon fill="none" stroke="black" points="70.1363,-10.3969 70.1363,-37.3969 222.136,-37.3969 222.136,-10.3969 70.1363,-10.3969"/>
<polygon fill="#cccccc" stroke="none" points="73.1363,-13.3969 73.1363,-34.3969 219.136,-34.3969 219.136,-13.3969 73.1363,-13.3969"/>
<polygon fill="none" stroke="black" points="73.1363,-13.3969 73.1363,-34.3969 125.136,-34.3969 125.136,-13.3969 73.1363,-13.3969"/>
<text text-anchor="start" x="76.1363" y="-20.1969" font-family="Times,serif" font-size="14.00">constant</text>
<polygon fill="none" stroke="black" points="125.136,-13.3969 125.136,-34.3969 169.136,-34.3969 169.136,-13.3969 125.136,-13.3969"/>
<text text-anchor="start" x="128.136" y="-20.1969" font-family="Times,serif" font-size="14.00">pattern</text>
<polygon fill="none" stroke="black" points="169.136,-13.3969 169.136,-34.3969 219.136,-34.3969 219.136,-13.3969 169.136,-13.3969"/>
<text text-anchor="start" x="172.136" y="-20.1969" font-family="Times,serif" font-size="14.00">variable</text>
</g>
<!-- carray&#45;&gt;pattern -->
<g id="edge3" class="edge"><title>carray:0&#45;&gt;pattern:0</title>
<path fill="none" stroke="black" stroke-dasharray="5,2" d="M325.136,-106.397C325.136,-36.1078 57.9208,-117.296 11.6363,-64.3969 -3.28949,-47.3382 -4.29965,-29.516 11.6363,-13.3969 22.9045,-1.99918 75.0397,4.49962 93.0203,-4.45591"/>
<polygon fill="none" stroke="black" points="90.2615,-6.60991 99.1363,-12.3969 95.8073,-2.33863 90.2615,-6.60991"/>
</g>
<!-- undef_sv -->
<g id="node5" class="node"><title>undef_sv</title>
<polygon fill="none" stroke="black" points="293.136,-24.3969 293.136,-46.3969 358.136,-46.3969 358.136,-24.3969 293.136,-24.3969"/>
<text text-anchor="start" x="296.636" y="-31.6969" font-family="Times,serif" font-size="14.00">SV(undef)</text>
</g>
<!-- carray&#45;&gt;undef_sv -->
<g id="edge4" class="edge"><title>carray:1&#45;&gt;undef_sv:body</title>
<path fill="none" stroke="black" stroke-dasharray="5,2" d="M360.136,-106.397C360.136,-87.516 350.004,-68.3889 340.802,-54.9109"/>
<polygon fill="none" stroke="black" points="343.433,-52.5776 334.716,-46.555 337.774,-56.6989 343.433,-52.5776"/>
</g>
<!-- anonhash_sv -->
<g id="node6" class="node"><title>anonhash_sv</title>
<polygon fill="none" stroke="black" points="392.136,-34.3969 392.136,-56.3969 460.136,-56.3969 460.136,-34.3969 392.136,-34.3969"/>
<text text-anchor="start" x="405.136" y="-41.6969" font-family="Times,serif" font-size="14.00">SV(ref)</text>
<polygon fill="none" stroke="black" points="392.136,-13.3969 392.136,-34.3969 460.136,-34.3969 460.136,-13.3969 392.136,-13.3969"/>
<text text-anchor="start" x="395.636" y="-20.1969" font-family="Times,serif" font-size="14.00">SvRV:SV*</text>
</g>
<!-- carray&#45;&gt;anonhash_sv -->
<g id="edge5" class="edge"><title>carray:2&#45;&gt;anonhash_sv:body</title>
<path fill="none" stroke="black" stroke-dasharray="5,2" d="M391.136,-106.397C391.136,-84.1573 372.893,-57.3569 381.302,-48.4436"/>
<polygon fill="none" stroke="black" points="382.62,-51.6994 391.136,-45.3969 380.548,-45.013 382.62,-51.6994"/>
</g>
<!-- padsv_sv -->
<g id="node7" class="node"><title>padsv_sv</title>
<polygon fill="none" stroke="black" points="494.136,-24.3969 494.136,-46.3969 534.136,-46.3969 534.136,-24.3969 494.136,-24.3969"/>
<text text-anchor="start" x="497.636" y="-31.6969" font-family="Times,serif" font-size="14.00">SV(?)</text>
</g>
<!-- carray&#45;&gt;padsv_sv -->
<g id="edge6" class="edge"><title>carray:3&#45;&gt;padsv_sv:body</title>
<path fill="none" stroke="black" stroke-dasharray="5,2" d="M438.136,-118.397C472.104,-118.397 495.146,-80.0783 506.327,-55.8298"/>
<polygon fill="none" stroke="black" points="509.626,-57.019 510.39,-46.4517 503.203,-54.2363 509.626,-57.019"/>
</g>
</g>
</svg>
