<?xml version="1.0" encoding="UTF-8" standalone="no"?>
<!DOCTYPE svg PUBLIC "-//W3C//DTD SVG 1.1//EN"
 "http://www.w3.org/Graphics/SVG/1.1/DTD/svg11.dtd">
<!-- Generated by graphviz version 2.36.0 (20140111.2315)
 -->
<!-- Title: alias Pages: 1 -->
<svg width="124pt" height="188pt"
 viewBox="0.00 0.00 124.00 188.00" xmlns="http://www.w3.org/2000/svg" xmlns:xlink="http://www.w3.org/1999/xlink">
<g id="graph0" class="graph" transform="scale(1 1) rotate(0) translate(4 184)">
<title>alias</title>
<polygon fill="white" stroke="none" points="-4,4 -4,-184 120,-184 120,4 -4,4"/>
<!-- stack -->
<g id="node1" class="node"><title>stack</title>
<text text-anchor="start" x="9.5" y="-158.3" font-family="Times,serif" font-size="14.00">stack</text>
<polygon fill="#ffcccc" stroke="none" points="40,-151 40,-173 58,-173 58,-151 40,-151"/>
<polygon fill="none" stroke="black" points="40,-151 40,-173 58,-173 58,-151 40,-151"/>
<text text-anchor="start" x="43" y="-158.3" font-family="Times,serif" font-size="14.00">...</text>
<polygon fill="#ffcccc" stroke="none" points="58,-151 58,-173 89,-173 89,-151 58,-151"/>
<polygon fill="none" stroke="black" points="58,-151 58,-173 89,-173 89,-151 58,-151"/>
<text text-anchor="start" x="61" y="-158.3" font-family="Times,serif" font-size="14.00">SV*</text>
</g>
<!-- shadow -->
<g id="node2" class="node"><title>shadow</title>
<polygon fill="none" stroke="black" points="40,-79 40,-101 108,-101 108,-79 40,-79"/>
<text text-anchor="start" x="43.5" y="-86.3" font-family="Times,serif" font-size="14.00">SV(magic)</text>
</g>
<!-- stack&#45;&gt;shadow -->
<g id="edge1" class="edge"><title>stack:SV&#45;&gt;shadow:SV</title>
<path fill="none" stroke="black" stroke-dasharray="5,2" d="M74,-150C74,-137.094 74,-122.599 74,-111.207"/>
<polygon fill="none" stroke="black" points="77.5001,-111.022 74,-101.022 70.5001,-111.022 77.5001,-111.022"/>
</g>
<!-- real -->
<g id="node3" class="node"><title>real</title>
<polygon fill="none" stroke="black" points="54,-7 54,-29 94,-29 94,-7 54,-7"/>
<text text-anchor="start" x="57.5" y="-14.3" font-family="Times,serif" font-size="14.00">SV(?)</text>
</g>
<!-- shadow&#45;&gt;real -->
<g id="edge2" class="edge"><title>shadow:SV&#45;&gt;real:SV</title>
<path fill="none" stroke="black" d="M74,-78.9707C74,-68.6786 74,-52.3754 74,-39.3639"/>
<polygon fill="black" stroke="black" points="77.5001,-39.0107 74,-29.0107 70.5001,-39.0107 77.5001,-39.0107"/>
</g>
</g>
</svg>
