<?xml version="1.0" encoding="UTF-8" standalone="no"?>
<!DOCTYPE svg PUBLIC "-//W3C//DTD SVG 1.1//EN"
 "http://www.w3.org/Graphics/SVG/1.1/DTD/svg11.dtd">
<!-- Generated by graphviz version 2.36.0 (20140111.2315)
 -->
<!-- Title: magic Pages: 1 -->
<svg width="267pt" height="400pt"
 viewBox="0.00 0.00 267.00 400.00" xmlns="http://www.w3.org/2000/svg" xmlns:xlink="http://www.w3.org/1999/xlink">
<g id="graph0" class="graph" transform="scale(1 1) rotate(0) translate(4 396)">
<title>magic</title>
<polygon fill="white" stroke="none" points="-4,4 -4,-396 263,-396 263,4 -4,4"/>
<!-- SV -->
<g id="node1" class="node"><title>SV</title>
<polygon fill="none" stroke="black" points="44,-365 44,-387 112,-387 112,-365 44,-365"/>
<text text-anchor="start" x="47.5" y="-372.3" font-family="Times,serif" font-size="14.00">SV(magic)</text>
<polygon fill="none" stroke="black" points="44,-296 44,-365 112,-365 112,-296 44,-296"/>
<polygon fill="none" stroke="black" points="47,-341 47,-362 109,-362 109,-341 47,-341"/>
<text text-anchor="start" x="72" y="-347.8" font-family="Times,serif" font-size="14.00">...</text>
<polygon fill="none" stroke="black" points="47,-320 47,-341 109,-341 109,-320 47,-320"/>
<text text-anchor="start" x="51.5" y="-326.8" font-family="Times,serif" font-size="14.00">MAGIC*</text>
<polygon fill="none" stroke="black" points="47,-299 47,-320 109,-320 109,-299 47,-299"/>
<text text-anchor="start" x="72" y="-305.8" font-family="Times,serif" font-size="14.00">...</text>
</g>
<!-- MAGIC -->
<g id="node2" class="node"><title>MAGIC</title>
<polygon fill="none" stroke="black" points="27,-229 27,-251 129,-251 129,-229 27,-229"/>
<text text-anchor="start" x="55" y="-236.3" font-family="Times,serif" font-size="14.00">MAGIC</text>
<polygon fill="none" stroke="black" points="129,-229 129,-251 181,-251 181,-229 129,-229"/>
<text text-anchor="start" x="132" y="-236.3" font-family="Times,serif" font-size="14.00">MAGIC</text>
<polygon fill="none" stroke="black" points="181,-229 181,-251 233,-251 233,-229 181,-229"/>
<text text-anchor="start" x="184" y="-236.3" font-family="Times,serif" font-size="14.00">MAGIC</text>
<polygon fill="none" stroke="black" points="233,-229 233,-251 251,-251 251,-229 233,-229"/>
<text text-anchor="start" x="236" y="-236.3" font-family="Times,serif" font-size="14.00">...</text>
<polygon fill="none" stroke="black" points="27,-160 27,-229 129,-229 129,-160 27,-160"/>
<polygon fill="none" stroke="black" points="30,-205 30,-226 126,-226 126,-205 30,-205"/>
<text text-anchor="start" x="45.5" y="-211.8" font-family="Times,serif" font-size="14.00">MGVTBL*</text>
<polygon fill="none" stroke="black" points="30,-184 30,-205 126,-205 126,-184 30,-184"/>
<text text-anchor="start" x="36.5" y="-190.8" font-family="Times,serif" font-size="14.00">SV* (any data)</text>
<polygon fill="none" stroke="black" points="30,-163 30,-184 126,-184 126,-163 30,-163"/>
<text text-anchor="start" x="33.5" y="-169.8" font-family="Times,serif" font-size="14.00">char* (any data)</text>
<polygon fill="none" stroke="black" points="129,-160 129,-229 181,-229 181,-160 129,-160"/>
<text text-anchor="start" x="149" y="-190.8" font-family="Times,serif" font-size="14.00">...</text>
<polygon fill="none" stroke="black" points="181,-160 181,-229 233,-229 233,-160 181,-160"/>
<text text-anchor="start" x="201" y="-190.8" font-family="Times,serif" font-size="14.00">...</text>
<polygon fill="none" stroke="black" points="233,-160 233,-229 251,-229 251,-160 233,-160"/>
<text text-anchor="start" x="236" y="-190.8" font-family="Times,serif" font-size="14.00">...</text>
</g>
<!-- SV&#45;&gt;MAGIC -->
<g id="edge1" class="edge"><title>SV:MAGIC&#45;&gt;MAGIC:0</title>
<path fill="none" stroke="black" d="M110,-330C126.895,-330 114.679,-307.912 109,-292 102.798,-274.623 85.911,-273.974 80.0423,-261.886"/>
<polygon fill="black" stroke="black" points="83.4509,-261.085 78,-252 76.5956,-262.501 83.4509,-261.085"/>
</g>
<!-- MGVTBL -->
<g id="node3" class="node"><title>MGVTBL</title>
<polygon fill="none" stroke="black" points="8,-94 8,-116 148,-116 148,-94 8,-94"/>
<text text-anchor="start" x="49" y="-101.3" font-family="Times,serif" font-size="14.00">MGVTBL</text>
<polygon fill="none" stroke="black" points="8,-4 8,-94 148,-94 148,-4 8,-4"/>
<polygon fill="none" stroke="black" points="11,-70 11,-91 145,-91 145,-70 11,-70"/>
<text text-anchor="start" x="17" y="-76.8" font-family="Times,serif" font-size="14.00">(*get)(SV*,MAGIC*)</text>
<polygon fill="none" stroke="black" points="11,-49 11,-70 145,-70 145,-49 11,-49"/>
<text text-anchor="start" x="17.5" y="-55.8" font-family="Times,serif" font-size="14.00">(*set)(SV*,MAGIC*)</text>
<polygon fill="none" stroke="black" points="11,-28 11,-49 145,-49 145,-28 11,-28"/>
<text text-anchor="start" x="14.5" y="-34.8" font-family="Times,serif" font-size="14.00">(*free)(SV*,MAGIC*)</text>
<polygon fill="none" stroke="black" points="11,-7 11,-28 145,-28 145,-7 11,-7"/>
<text text-anchor="start" x="72" y="-13.8" font-family="Times,serif" font-size="14.00">...</text>
</g>
<!-- MAGIC&#45;&gt;MGVTBL -->
<g id="edge2" class="edge"><title>MAGIC:MGVTBL&#45;&gt;MGVTBL</title>
<path fill="none" stroke="black" d="M29,-216C-10.1271,-216 7.49587,-170.541 31.8774,-128.86"/>
<polygon fill="black" stroke="black" points="35.0246,-130.417 37.1648,-120.041 29.0209,-126.818 35.0246,-130.417"/>
</g>
</g>
</svg>
