<?xml version="1.0" encoding="UTF-8" standalone="no"?>
<!DOCTYPE svg PUBLIC "-//W3C//DTD SVG 1.1//EN"
 "http://www.w3.org/Graphics/SVG/1.1/DTD/svg11.dtd">
<!-- Generated by graphviz version 2.36.0 (20140111.2315)
 -->
<!-- Title: optree Pages: 1 -->
<svg width="693pt" height="214pt"
 viewBox="0.00 0.00 693.00 214.00" xmlns="http://www.w3.org/2000/svg" xmlns:xlink="http://www.w3.org/1999/xlink">
<g id="graph0" class="graph" transform="scale(1 1) rotate(0) translate(4 210)">
<title>optree</title>
<polygon fill="white" stroke="none" points="-4,4 -4,-210 689,-210 689,4 -4,4"/>
<!-- entersub -->
<g id="node1" class="node"><title>entersub</title>
<polygon fill="none" stroke="black" points="4,-169 4,-205 66,-205 66,-169 4,-169"/>
<text text-anchor="middle" x="35" y="-183.3" font-family="Times,serif" font-size="14.00">entersub</text>
</g>
<!-- pushmark1 -->
<g id="node2" class="node"><title>pushmark1</title>
<polygon fill="none" stroke="black" points="-0.5,-90 -0.5,-126 70.5,-126 70.5,-90 -0.5,-90"/>
<text text-anchor="middle" x="35" y="-104.3" font-family="Times,serif" font-size="14.00">pushmark</text>
</g>
<!-- entersub&#45;&gt;pushmark1 -->
<g id="edge1" class="edge"><title>entersub&#45;&gt;pushmark1</title>
<path fill="none" stroke="black" d="M35,-168.911C35,-159.341 35,-147.183 35,-136.323"/>
<polygon fill="black" stroke="black" points="38.5001,-136.041 35,-126.041 31.5001,-136.041 38.5001,-136.041"/>
</g>
<!-- anonlist -->
<g id="node3" class="node"><title>anonlist</title>
<polygon fill="none" stroke="black" points="88.5,-90 88.5,-126 147.5,-126 147.5,-90 88.5,-90"/>
<text text-anchor="middle" x="118" y="-104.3" font-family="Times,serif" font-size="14.00">anonlist</text>
</g>
<!-- pushmark1&#45;&gt;anonlist -->
<g id="edge2" class="edge"><title>pushmark1&#45;&gt;anonlist</title>
<path fill="none" stroke="black" d="M70.6641,-108C73.1603,-108 75.6565,-108 78.1528,-108"/>
<polygon fill="black" stroke="black" points="78.4151,-111.5 88.415,-108 78.415,-104.5 78.4151,-111.5"/>
</g>
<!-- rv2cv -->
<g id="node4" class="node"><title>rv2cv</title>
<polygon fill="none" stroke="black" points="485,-90 485,-126 539,-126 539,-90 485,-90"/>
<text text-anchor="middle" x="512" y="-104.3" font-family="Times,serif" font-size="14.00">rv2cv</text>
</g>
<!-- anonlist&#45;&gt;rv2cv -->
<g id="edge3" class="edge"><title>anonlist&#45;&gt;rv2cv</title>
<path fill="none" stroke="black" d="M132.873,-126.132C141.483,-135.166 153.147,-145.171 166,-150 197.307,-161.763 435.885,-162.264 467,-150 476.054,-146.431 484.36,-140.087 491.306,-133.394"/>
<polygon fill="black" stroke="black" points="493.893,-135.753 498.279,-126.108 488.836,-130.912 493.893,-135.753"/>
</g>
<!-- pushmark2 -->
<g id="node6" class="node"><title>pushmark2</title>
<polygon fill="none" stroke="black" points="165.5,-90 165.5,-126 236.5,-126 236.5,-90 165.5,-90"/>
<text text-anchor="middle" x="201" y="-104.3" font-family="Times,serif" font-size="14.00">pushmark</text>
</g>
<!-- anonlist&#45;&gt;pushmark2 -->
<g id="edge5" class="edge"><title>anonlist&#45;&gt;pushmark2</title>
<path fill="none" stroke="black" d="M147.504,-108C150.125,-108 152.746,-108 155.366,-108"/>
<polygon fill="black" stroke="black" points="155.475,-111.5 165.475,-108 155.475,-104.5 155.475,-111.5"/>
</g>
<!-- gv -->
<g id="node5" class="node"><title>gv</title>
<polygon fill="none" stroke="black" points="557,-85 557,-131 611,-131 611,-85 557,-85"/>
<text text-anchor="middle" x="584" y="-115.8" font-family="Times,serif" font-size="14.00">gv</text>
<polyline fill="none" stroke="black" points="557,-108 611,-108 "/>
<text text-anchor="middle" x="584" y="-92.8" font-family="Times,serif" font-size="14.00">&quot;des&quot;</text>
</g>
<!-- rv2cv&#45;&gt;gv -->
<g id="edge4" class="edge"><title>rv2cv&#45;&gt;gv</title>
<path fill="none" stroke="black" d="M539.281,-108C541.738,-108 544.194,-108 546.651,-108"/>
<polygon fill="black" stroke="black" points="546.75,-111.5 556.75,-108 546.749,-104.5 546.75,-111.5"/>
</g>
<!-- undef -->
<g id="node7" class="node"><title>undef</title>
<polygon fill="none" stroke="black" points="255,-90 255,-126 309,-126 309,-90 255,-90"/>
<text text-anchor="middle" x="282" y="-104.3" font-family="Times,serif" font-size="14.00">undef</text>
</g>
<!-- pushmark2&#45;&gt;undef -->
<g id="edge6" class="edge"><title>pushmark2&#45;&gt;undef</title>
<path fill="none" stroke="black" d="M236.754,-108C239.383,-108 242.012,-108 244.641,-108"/>
<polygon fill="black" stroke="black" points="244.782,-111.5 254.782,-108 244.782,-104.5 244.782,-111.5"/>
</g>
<!-- anonhash -->
<g id="node8" class="node"><title>anonhash</title>
<polygon fill="none" stroke="black" points="327,-90 327,-126 395,-126 395,-90 327,-90"/>
<text text-anchor="middle" x="361" y="-104.3" font-family="Times,serif" font-size="14.00">anonhash</text>
</g>
<!-- undef&#45;&gt;anonhash -->
<g id="edge7" class="edge"><title>undef&#45;&gt;anonhash</title>
<path fill="none" stroke="black" d="M309.156,-108C311.755,-108 314.354,-108 316.953,-108"/>
<polygon fill="black" stroke="black" points="316.978,-111.5 326.978,-108 316.978,-104.5 316.978,-111.5"/>
</g>
<!-- padsv_x -->
<g id="node9" class="node"><title>padsv_x</title>
<polygon fill="none" stroke="black" points="413,-85 413,-131 467,-131 467,-85 413,-85"/>
<text text-anchor="middle" x="440" y="-115.8" font-family="Times,serif" font-size="14.00">padsv</text>
<polyline fill="none" stroke="black" points="413,-108 467,-108 "/>
<text text-anchor="middle" x="440" y="-92.8" font-family="Times,serif" font-size="14.00">$x</text>
</g>
<!-- anonhash&#45;&gt;padsv_x -->
<g id="edge8" class="edge"><title>anonhash&#45;&gt;padsv_x</title>
<path fill="none" stroke="black" d="M395.254,-108C397.712,-108 400.17,-108 402.628,-108"/>
<polygon fill="black" stroke="black" points="402.733,-111.5 412.733,-108 402.733,-104.5 402.733,-111.5"/>
</g>
<!-- pushmark3 -->
<g id="node10" class="node"><title>pushmark3</title>
<polygon fill="none" stroke="black" points="325.5,-6 325.5,-42 396.5,-42 396.5,-6 325.5,-6"/>
<text text-anchor="middle" x="361" y="-20.3" font-family="Times,serif" font-size="14.00">pushmark</text>
</g>
<!-- anonhash&#45;&gt;pushmark3 -->
<g id="edge9" class="edge"><title>anonhash&#45;&gt;pushmark3</title>
<path fill="none" stroke="black" d="M361,-89.6099C361,-78.7743 361,-64.6012 361,-52.2913"/>
<polygon fill="black" stroke="black" points="364.5,-52.0838 361,-42.0838 357.5,-52.0839 364.5,-52.0838"/>
</g>
<!-- const_y -->
<g id="node11" class="node"><title>const_y</title>
<polygon fill="none" stroke="black" points="415,-1 415,-47 469,-47 469,-1 415,-1"/>
<text text-anchor="middle" x="442" y="-31.8" font-family="Times,serif" font-size="14.00">const</text>
<polyline fill="none" stroke="black" points="415,-24 469,-24 "/>
<text text-anchor="middle" x="442" y="-8.8" font-family="Times,serif" font-size="14.00">&quot;y&quot;</text>
</g>
<!-- pushmark3&#45;&gt;const_y -->
<g id="edge10" class="edge"><title>pushmark3&#45;&gt;const_y</title>
<path fill="none" stroke="black" d="M396.754,-24C399.383,-24 402.012,-24 404.641,-24"/>
<polygon fill="black" stroke="black" points="404.782,-27.5001 414.782,-24 404.782,-20.5001 404.782,-27.5001"/>
</g>
<!-- padsv_y -->
<g id="node13" class="node"><title>padsv_y</title>
<polygon fill="none" stroke="black" points="487,-1 487,-47 541,-47 541,-1 487,-1"/>
<text text-anchor="middle" x="514" y="-31.8" font-family="Times,serif" font-size="14.00">padsv</text>
<polyline fill="none" stroke="black" points="487,-24 541,-24 "/>
<text text-anchor="middle" x="514" y="-8.8" font-family="Times,serif" font-size="14.00">$y</text>
</g>
<!-- const_y&#45;&gt;padsv_y -->
<g id="edge11" class="edge"><title>const_y&#45;&gt;padsv_y</title>
<path fill="none" stroke="black" d="M469.281,-24C471.738,-24 474.194,-24 476.651,-24"/>
<polygon fill="black" stroke="black" points="476.75,-27.5001 486.75,-24 476.749,-20.5001 476.75,-27.5001"/>
</g>
<!-- const_w -->
<g id="node12" class="node"><title>const_w</title>
<polygon fill="none" stroke="black" points="559,-1 559,-47 613,-47 613,-1 559,-1"/>
<text text-anchor="middle" x="586" y="-31.8" font-family="Times,serif" font-size="14.00">const</text>
<polyline fill="none" stroke="black" points="559,-24 613,-24 "/>
<text text-anchor="middle" x="586" y="-8.8" font-family="Times,serif" font-size="14.00">&quot;w&quot;</text>
</g>
<!-- padsv_w -->
<g id="node14" class="node"><title>padsv_w</title>
<polygon fill="none" stroke="black" points="631,-1 631,-47 685,-47 685,-1 631,-1"/>
<text text-anchor="middle" x="658" y="-31.8" font-family="Times,serif" font-size="14.00">padsv</text>
<polyline fill="none" stroke="black" points="631,-24 685,-24 "/>
<text text-anchor="middle" x="658" y="-8.8" font-family="Times,serif" font-size="14.00">$w</text>
</g>
<!-- const_w&#45;&gt;padsv_w -->
<g id="edge13" class="edge"><title>const_w&#45;&gt;padsv_w</title>
<path fill="none" stroke="black" d="M613.281,-24C615.738,-24 618.194,-24 620.651,-24"/>
<polygon fill="black" stroke="black" points="620.75,-27.5001 630.75,-24 620.749,-20.5001 620.75,-27.5001"/>
</g>
<!-- padsv_y&#45;&gt;const_w -->
<g id="edge12" class="edge"><title>padsv_y&#45;&gt;const_w</title>
<path fill="none" stroke="black" d="M541.281,-24C543.738,-24 546.194,-24 548.651,-24"/>
<polygon fill="black" stroke="black" points="548.75,-27.5001 558.75,-24 548.749,-20.5001 548.75,-27.5001"/>
</g>
</g>
</svg>
