<?xml version="1.0" encoding="UTF-8" standalone="no"?>
<!DOCTYPE svg PUBLIC "-//W3C//DTD SVG 1.1//EN"
 "http://www.w3.org/Graphics/SVG/1.1/DTD/svg11.dtd">
<!-- Generated by graphviz version 2.36.0 (20140111.2315)
 -->
<!-- Title: optree Pages: 1 -->
<svg width="381pt" height="362pt"
 viewBox="0.00 0.00 381.00 362.00" xmlns="http://www.w3.org/2000/svg" xmlns:xlink="http://www.w3.org/1999/xlink">
<g id="graph0" class="graph" transform="scale(1 1) rotate(0) translate(4 358)">
<title>optree</title>
<polygon fill="white" stroke="none" points="-4,4 -4,-358 377,-358 377,4 -4,4"/>
<!-- t0 -->
<g id="node1" class="node"><title>t0</title>
<polygon fill="none" stroke="black" points="34,-317 34,-353 96,-353 96,-317 34,-317"/>
<text text-anchor="middle" x="65" y="-331.3" font-family="Times,serif" font-size="14.00">entersub</text>
</g>
<!-- t1 -->
<g id="node2" class="node"><title>t1</title>
<polygon fill="none" stroke="black" points="38,-243 38,-279 92,-279 92,-243 38,-243"/>
<text text-anchor="middle" x="65" y="-257.3" font-family="Times,serif" font-size="14.00">list</text>
</g>
<!-- t0&#45;&gt;t1 -->
<g id="edge1" class="edge"><title>t0:entersub&#45;&gt;t1:list</title>
<path fill="none" stroke="black" d="M65,-316.708C65,-308.464 65,-298.538 65,-289.362"/>
<polygon fill="black" stroke="black" points="68.5001,-289.082 65,-279.082 61.5001,-289.082 68.5001,-289.082"/>
</g>
<!-- t2 -->
<g id="node3" class="node"><title>t2</title>
<polygon fill="none" stroke="black" points="29.5,-169 29.5,-205 206.5,-205 206.5,-169 29.5,-169"/>
<text text-anchor="middle" x="65" y="-183.3" font-family="Times,serif" font-size="14.00">pushmark</text>
<polyline fill="none" stroke="black" points="100.5,-169 100.5,-205 "/>
<text text-anchor="middle" x="130" y="-183.3" font-family="Times,serif" font-size="14.00">anonlist</text>
<polyline fill="none" stroke="black" points="159.5,-169 159.5,-205 "/>
<text text-anchor="middle" x="183" y="-183.3" font-family="Times,serif" font-size="14.00">rv2cv</text>
</g>
<!-- t1&#45;&gt;t2 -->
<g id="edge2" class="edge"><title>t1:list&#45;&gt;t2:pushmark</title>
<path fill="none" stroke="black" d="M65,-242.667C65,-234.896 65,-225.513 65,-216.275"/>
<polygon fill="black" stroke="black" points="68.5001,-216 65,-206 61.5001,-216 68.5001,-216"/>
</g>
<!-- t3 -->
<g id="node4" class="node"><title>t3</title>
<polygon fill="none" stroke="black" points="0,-85 0,-131 234,-131 234,-85 0,-85"/>
<text text-anchor="middle" x="35.5" y="-104.3" font-family="Times,serif" font-size="14.00">pushmark</text>
<polyline fill="none" stroke="black" points="71,-85 71,-131 "/>
<text text-anchor="middle" x="94.5" y="-104.3" font-family="Times,serif" font-size="14.00">undef</text>
<polyline fill="none" stroke="black" points="118,-85 118,-131 "/>
<text text-anchor="middle" x="152" y="-104.3" font-family="Times,serif" font-size="14.00">anonhash</text>
<polyline fill="none" stroke="black" points="186,-85 186,-131 "/>
<text text-anchor="middle" x="210" y="-115.8" font-family="Times,serif" font-size="14.00">padsv</text>
<polyline fill="none" stroke="black" points="186,-108 234,-108 "/>
<text text-anchor="middle" x="210" y="-92.8" font-family="Times,serif" font-size="14.00">&quot;$x&quot;</text>
</g>
<!-- t2&#45;&gt;t3 -->
<g id="edge3" class="edge"><title>t2:anonlist&#45;&gt;t3:pushmark</title>
<path fill="none" stroke="black" d="M130,-168C130,-126.904 51.3035,-168.197 37.1627,-141.906"/>
<polygon fill="black" stroke="black" points="40.5526,-141.023 35,-132 33.7137,-142.516 40.5526,-141.023"/>
</g>
<!-- t4 -->
<g id="node5" class="node"><title>t4</title>
<polygon fill="none" stroke="black" points="252,-85 252,-131 306,-131 306,-85 252,-85"/>
<text text-anchor="middle" x="279" y="-115.8" font-family="Times,serif" font-size="14.00">gv</text>
<polyline fill="none" stroke="black" points="252,-108 306,-108 "/>
<text text-anchor="middle" x="279" y="-92.8" font-family="Times,serif" font-size="14.00">&quot;des&quot;</text>
</g>
<!-- t2&#45;&gt;t4 -->
<g id="edge4" class="edge"><title>t2:rv2cv&#45;&gt;t4</title>
<path fill="none" stroke="black" d="M208,-187C234.598,-187 253.87,-161.89 265.567,-140.164"/>
<polygon fill="black" stroke="black" points="268.738,-141.648 270.115,-131.143 262.488,-138.496 268.738,-141.648"/>
</g>
<!-- t5 -->
<g id="node6" class="node"><title>t5</title>
<polygon fill="none" stroke="black" points="116.5,-1 116.5,-47 373.5,-47 373.5,-1 116.5,-1"/>
<text text-anchor="middle" x="152" y="-20.3" font-family="Times,serif" font-size="14.00">pushmark</text>
<polyline fill="none" stroke="black" points="187.5,-1 187.5,-47 "/>
<text text-anchor="middle" x="210" y="-31.8" font-family="Times,serif" font-size="14.00">const</text>
<polyline fill="none" stroke="black" points="187.5,-24 232.5,-24 "/>
<text text-anchor="middle" x="210" y="-8.8" font-family="Times,serif" font-size="14.00">&quot;y&quot;</text>
<polyline fill="none" stroke="black" points="232.5,-1 232.5,-47 "/>
<text text-anchor="middle" x="256.5" y="-31.8" font-family="Times,serif" font-size="14.00">padsv</text>
<polyline fill="none" stroke="black" points="232.5,-24 280.5,-24 "/>
<text text-anchor="middle" x="256.5" y="-8.8" font-family="Times,serif" font-size="14.00">&quot;$y&quot;</text>
<polyline fill="none" stroke="black" points="280.5,-1 280.5,-47 "/>
<text text-anchor="middle" x="303" y="-31.8" font-family="Times,serif" font-size="14.00">const</text>
<polyline fill="none" stroke="black" points="280.5,-24 325.5,-24 "/>
<text text-anchor="middle" x="303" y="-8.8" font-family="Times,serif" font-size="14.00">&quot;w&quot;</text>
<polyline fill="none" stroke="black" points="325.5,-1 325.5,-47 "/>
<text text-anchor="middle" x="349.5" y="-31.8" font-family="Times,serif" font-size="14.00">padsv</text>
<polyline fill="none" stroke="black" points="325.5,-24 373.5,-24 "/>
<text text-anchor="middle" x="349.5" y="-8.8" font-family="Times,serif" font-size="14.00">&quot;$w&quot;</text>
</g>
<!-- t3&#45;&gt;t5 -->
<g id="edge5" class="edge"><title>t3:anonhash&#45;&gt;t5:pushmark</title>
<path fill="none" stroke="black" d="M152,-84C152,-72 152,-66.75 152,-58.125"/>
<polygon fill="black" stroke="black" points="155.5,-58 152,-48 148.5,-58 155.5,-58"/>
</g>
</g>
</svg>
