<?xml version="1.0" encoding="UTF-8" standalone="no"?>
<!DOCTYPE svg PUBLIC "-//W3C//DTD SVG 1.1//EN"
 "http://www.w3.org/Graphics/SVG/1.1/DTD/svg11.dtd">
<!-- Generated by graphviz version 2.36.0 (20140111.2315)
 -->
<!-- Title: optree Pages: 1 -->
<svg width="329pt" height="364pt"
 viewBox="0.00 0.00 329.00 364.00" xmlns="http://www.w3.org/2000/svg" xmlns:xlink="http://www.w3.org/1999/xlink">
<g id="graph0" class="graph" transform="scale(1 1) rotate(0) translate(4 360)">
<title>optree</title>
<polygon fill="white" stroke="none" points="-4,4 -4,-360 325,-360 325,4 -4,4"/>
<!-- t0 -->
<g id="node1" class="node"><title>t0</title>
<polygon fill="none" stroke="black" points="43,-327 43,-349 96,-349 96,-327 43,-327"/>
<text text-anchor="start" x="46.5" y="-334.3" font-family="Times,serif" font-size="14.00">entersub</text>
</g>
<!-- t1 -->
<g id="node2" class="node"><title>t1</title>
<polygon fill="none" stroke="black" points="58,-255 58,-277 82,-277 82,-255 58,-255"/>
<text text-anchor="start" x="61.5" y="-262.3" font-family="Times,serif" font-size="14.00">list</text>
</g>
<!-- t0&#45;&gt;t1 -->
<g id="edge1" class="edge"><title>t0:entersub&#45;&gt;t1:list</title>
<path fill="none" stroke="black" d="M70,-326.971C70,-316.679 70,-300.375 70,-287.364"/>
<polygon fill="black" stroke="black" points="73.5001,-287.011 70,-277.011 66.5001,-287.011 73.5001,-287.011"/>
</g>
<!-- t2 -->
<g id="node3" class="node"><title>t2</title>
<polygon fill="none" stroke="black" points="39,-183 39,-205 101,-205 101,-183 39,-183"/>
<text text-anchor="start" x="42.5" y="-190.3" font-family="Times,serif" font-size="14.00">pushmark</text>
<polygon fill="none" stroke="black" points="101,-183 101,-205 150,-205 150,-183 101,-183"/>
<text text-anchor="start" x="104" y="-190.3" font-family="Times,serif" font-size="14.00">anonlist</text>
<polygon fill="none" stroke="black" points="150,-183 150,-205 187,-205 187,-183 150,-183"/>
<text text-anchor="start" x="153" y="-190.3" font-family="Times,serif" font-size="14.00">rv2cv</text>
</g>
<!-- t1&#45;&gt;t2 -->
<g id="edge2" class="edge"><title>t1:list&#45;&gt;t2:pushmark</title>
<path fill="none" stroke="black" d="M70,-254.978C70,-245.533 70,-230.717 70,-216.323"/>
<polygon fill="black" stroke="black" points="73.5001,-216 70,-206 66.5001,-216 73.5001,-216"/>
</g>
<!-- t3 -->
<g id="node4" class="node"><title>t3</title>
<polygon fill="none" stroke="black" points="8,-92 8,-135 70,-135 70,-92 8,-92"/>
<text text-anchor="start" x="11.5" y="-109.8" font-family="Times,serif" font-size="14.00">pushmark</text>
<polygon fill="none" stroke="black" points="70,-92 70,-135 107,-135 107,-92 70,-92"/>
<text text-anchor="start" x="73" y="-109.8" font-family="Times,serif" font-size="14.00">undef</text>
<polygon fill="none" stroke="black" points="107,-92 107,-135 165,-135 165,-92 107,-92"/>
<text text-anchor="start" x="110" y="-109.8" font-family="Times,serif" font-size="14.00">anonhash</text>
<polygon fill="none" stroke="black" points="165,-113 165,-135 203,-135 203,-113 165,-113"/>
<text text-anchor="start" x="168" y="-120.3" font-family="Times,serif" font-size="14.00">padsv</text>
<polygon fill="none" stroke="black" points="165,-92 165,-113 203,-113 203,-92 165,-92"/>
<text text-anchor="start" x="171" y="-98.8" font-family="Times,serif" font-size="14.00">&quot;$x&quot;</text>
</g>
<!-- t2&#45;&gt;t3 -->
<g id="edge3" class="edge"><title>t2:anonlist&#45;&gt;t3:pushmark</title>
<path fill="none" stroke="black" d="M126,-182C126,-142.191 53.9306,-172.974 40.9806,-145.849"/>
<polygon fill="black" stroke="black" points="44.4029,-145.114 39,-136 37.5402,-146.494 44.4029,-145.114"/>
</g>
<!-- t4 -->
<g id="node5" class="node"><title>t4</title>
<polygon fill="none" stroke="black" points="237,-113 237,-135 275,-135 275,-113 237,-113"/>
<text text-anchor="start" x="249" y="-120.3" font-family="Times,serif" font-size="14.00">gv</text>
<polygon fill="none" stroke="black" points="237,-92 237,-113 275,-113 275,-92 237,-92"/>
<text text-anchor="start" x="240.5" y="-98.8" font-family="Times,serif" font-size="14.00">&quot;des&quot;</text>
</g>
<!-- t2&#45;&gt;t4 -->
<g id="edge4" class="edge"><title>t2:rv2cv&#45;&gt;t4</title>
<path fill="none" stroke="black" d="M188,-194C213.38,-194 231.36,-170.29 242.431,-148.849"/>
<polygon fill="black" stroke="black" points="245.717,-150.092 246.894,-139.563 239.407,-147.06 245.717,-150.092"/>
</g>
<!-- t5 -->
<g id="node6" class="node"><title>t5</title>
<polygon fill="none" stroke="black" points="105,-4 105,-47 167,-47 167,-4 105,-4"/>
<text text-anchor="start" x="108.5" y="-21.8" font-family="Times,serif" font-size="14.00">pushmark</text>
<polygon fill="none" stroke="black" points="167,-25 167,-47 202,-47 202,-25 167,-25"/>
<text text-anchor="start" x="170" y="-32.3" font-family="Times,serif" font-size="14.00">const</text>
<polygon fill="none" stroke="black" points="202,-25 202,-47 240,-47 240,-25 202,-25"/>
<text text-anchor="start" x="205" y="-32.3" font-family="Times,serif" font-size="14.00">padsv</text>
<polygon fill="none" stroke="black" points="240,-25 240,-47 275,-47 275,-25 240,-25"/>
<text text-anchor="start" x="243" y="-32.3" font-family="Times,serif" font-size="14.00">const</text>
<polygon fill="none" stroke="black" points="275,-25 275,-47 313,-47 313,-25 275,-25"/>
<text text-anchor="start" x="278" y="-32.3" font-family="Times,serif" font-size="14.00">padsv</text>
<polygon fill="none" stroke="black" points="167,-4 167,-25 202,-25 202,-4 167,-4"/>
<text text-anchor="start" x="175" y="-10.8" font-family="Times,serif" font-size="14.00">&quot;y&quot;</text>
<polygon fill="none" stroke="black" points="202,-4 202,-25 240,-25 240,-4 202,-4"/>
<text text-anchor="start" x="208" y="-10.8" font-family="Times,serif" font-size="14.00">&quot;$y&quot;</text>
<polygon fill="none" stroke="black" points="240,-4 240,-25 275,-25 275,-4 240,-4"/>
<text text-anchor="start" x="246.5" y="-10.8" font-family="Times,serif" font-size="14.00">&quot;w&quot;</text>
<polygon fill="none" stroke="black" points="275,-4 275,-25 313,-25 313,-4 275,-4"/>
<text text-anchor="start" x="279.5" y="-10.8" font-family="Times,serif" font-size="14.00">&quot;$w&quot;</text>
</g>
<!-- t3&#45;&gt;t5 -->
<g id="edge5" class="edge"><title>t3:anonhash&#45;&gt;t5:pushmark</title>
<path fill="none" stroke="black" d="M136,-91C136,-75.7708 136,-69.6435 136,-58.1119"/>
<polygon fill="black" stroke="black" points="139.5,-58 136,-48 132.5,-58 139.5,-58"/>
</g>
</g>
</svg>
