<?xml version="1.0" encoding="UTF-8" standalone="no"?>
<!DOCTYPE svg PUBLIC "-//W3C//DTD SVG 1.1//EN"
 "http://www.w3.org/Graphics/SVG/1.1/DTD/svg11.dtd">
<!-- Generated by graphviz version 2.36.0 (20140111.2315)
 -->
<!-- Title: optree Pages: 1 -->
<svg width="261pt" height="352pt"
 viewBox="0.00 0.00 261.00 352.00" xmlns="http://www.w3.org/2000/svg" xmlns:xlink="http://www.w3.org/1999/xlink">
<g id="graph0" class="graph" transform="scale(1 1) rotate(0) translate(4 348)">
<title>optree</title>
<polygon fill="white" stroke="none" points="-4,4 -4,-348 257,-348 257,4 -4,4"/>
<!-- t0 -->
<g id="node1" class="node"><title>t0</title>
<polygon fill="none" stroke="black" points="4,-307 4,-343 60,-343 60,-307 4,-307"/>
<text text-anchor="middle" x="32" y="-321.3" font-family="Times,serif" font-size="14.00">sassign</text>
</g>
<!-- t1 -->
<g id="node2" class="node"><title>t1</title>
<polygon fill="none" stroke="black" points="2.5,-233 2.5,-269 123.5,-269 123.5,-233 2.5,-233"/>
<text text-anchor="middle" x="32" y="-247.3" font-family="Times,serif" font-size="14.00">anonlist</text>
<polyline fill="none" stroke="black" points="61.5,-233 61.5,-269 "/>
<text text-anchor="middle" x="92.5" y="-247.3" font-family="Times,serif" font-size="14.00">entersub</text>
</g>
<!-- t0&#45;&gt;t1 -->
<g id="edge1" class="edge"><title>t0:sassign&#45;&gt;t1:anonlist</title>
<path fill="none" stroke="black" d="M32,-306.667C32,-298.896 32,-289.513 32,-280.275"/>
<polygon fill="black" stroke="black" points="35.5001,-280 32,-270 28.5001,-280 35.5001,-280"/>
</g>
<!-- t2 -->
<g id="node3" class="node"><title>t2</title>
<polygon fill="none" stroke="black" points="0,-159 0,-195 54,-195 54,-159 0,-159"/>
<text text-anchor="middle" x="27" y="-173.3" font-family="Times,serif" font-size="14.00">...</text>
</g>
<!-- t1&#45;&gt;t2 -->
<g id="edge2" class="edge"><title>t1:anonlist&#45;&gt;t2</title>
<path fill="none" stroke="black" d="M32,-232C32,-223.394 31.3626,-214.049 30.5429,-205.59"/>
<polygon fill="black" stroke="black" points="34.0031,-205.035 29.4414,-195.472 27.0442,-205.792 34.0031,-205.035"/>
</g>
<!-- t3 -->
<g id="node4" class="node"><title>t3</title>
<polygon fill="none" stroke="black" points="72,-159 72,-195 126,-195 126,-159 72,-159"/>
<text text-anchor="middle" x="99" y="-173.3" font-family="Times,serif" font-size="14.00">list</text>
</g>
<!-- t1&#45;&gt;t3 -->
<g id="edge3" class="edge"><title>t1:entersub&#45;&gt;t3:list</title>
<path fill="none" stroke="black" d="M93,-232C93,-223.355 93.7416,-213.991 94.7033,-205.482"/>
<polygon fill="black" stroke="black" points="98.2112,-205.64 96,-195.279 91.2671,-204.758 98.2112,-205.64"/>
</g>
<!-- t4 -->
<g id="node5" class="node"><title>t4</title>
<polygon fill="none" stroke="black" points="63.5,-85 63.5,-121 240.5,-121 240.5,-85 63.5,-85"/>
<text text-anchor="middle" x="99" y="-99.3" font-family="Times,serif" font-size="14.00">pushmark</text>
<polyline fill="none" stroke="black" points="134.5,-85 134.5,-121 "/>
<text text-anchor="middle" x="164" y="-99.3" font-family="Times,serif" font-size="14.00">anonlist</text>
<polyline fill="none" stroke="black" points="193.5,-85 193.5,-121 "/>
<text text-anchor="middle" x="217" y="-99.3" font-family="Times,serif" font-size="14.00">rv2cv</text>
</g>
<!-- t3&#45;&gt;t4 -->
<g id="edge4" class="edge"><title>t3:list&#45;&gt;t4:pushmark</title>
<path fill="none" stroke="black" d="M99,-158.667C99,-150.896 99,-141.513 99,-132.275"/>
<polygon fill="black" stroke="black" points="102.5,-132 99,-122 95.5001,-132 102.5,-132"/>
</g>
<!-- t5 -->
<g id="node6" class="node"><title>t5</title>
<polygon fill="none" stroke="black" points="199,-1 199,-47 253,-47 253,-1 199,-1"/>
<text text-anchor="middle" x="226" y="-31.8" font-family="Times,serif" font-size="14.00">gv</text>
<polyline fill="none" stroke="black" points="199,-24 253,-24 "/>
<text text-anchor="middle" x="226" y="-8.8" font-family="Times,serif" font-size="14.00">&quot;des&quot;</text>
</g>
<!-- t4&#45;&gt;t5 -->
<g id="edge5" class="edge"><title>t4:rv2cv&#45;&gt;t5</title>
<path fill="none" stroke="black" d="M217,-84C217,-75.234 217.983,-65.8182 219.299,-57.1396"/>
<polygon fill="black" stroke="black" points="222.795,-57.4584 221.026,-47.0123 215.895,-56.2816 222.795,-57.4584"/>
</g>
<!-- t6 -->
<g id="node7" class="node"><title>t6</title>
<polygon fill="none" stroke="black" points="127,-6 127,-42 181,-42 181,-6 127,-6"/>
<text text-anchor="middle" x="154" y="-20.3" font-family="Times,serif" font-size="14.00">...</text>
</g>
<!-- t4&#45;&gt;t6 -->
<g id="edge6" class="edge"><title>t4:anonlist&#45;&gt;t6</title>
<path fill="none" stroke="black" d="M164,-84C164,-73.5475 162.455,-62.1981 160.58,-52.2711"/>
<polygon fill="black" stroke="black" points="163.941,-51.2423 158.474,-42.1673 157.089,-52.6713 163.941,-51.2423"/>
</g>
</g>
</svg>
