<?xml version="1.0" encoding="UTF-8" standalone="no"?>
<!DOCTYPE svg PUBLIC "-//W3C//DTD SVG 1.1//EN"
 "http://www.w3.org/Graphics/SVG/1.1/DTD/svg11.dtd">
<!-- Generated by graphviz version 2.36.0 (20140111.2315)
 -->
<!-- Title: prof Pages: 1 -->
<svg width="431pt" height="288pt"
 viewBox="0.00 0.00 431.13 288.00" xmlns="http://www.w3.org/2000/svg" xmlns:xlink="http://www.w3.org/1999/xlink">
<g id="graph0" class="graph" transform="scale(0.216759 0.216759) rotate(0) translate(4 1324.67)">
<title>prof</title>
<polygon fill="white" stroke="none" points="-4,4 -4,-1324.67 1985,-1324.67 1985,4 -4,4"/>
<!-- start -->
<g id="node1" class="node"><title>start</title>
<ellipse fill="lightgrey" stroke="black" cx="1135" cy="-1282" rx="27" ry="18"/>
<text text-anchor="middle" x="1135" y="-1278.3" font-family="Times,serif" font-size="14.00">start</text>
</g>
<!-- main -->
<g id="node2" class="node"><title>main</title>
<ellipse fill="#ccd1ff" stroke="#ccd1ff" cx="963" cy="-971" rx="28.3955" ry="18"/>
<text text-anchor="middle" x="963" y="-967.3" font-family="Times,serif" font-size="14.00">main</text>
</g>
<!-- start&#45;&gt;main -->
<g id="edge1" class="edge"><title>start&#45;&gt;main</title>
<path fill="none" stroke="#fe0300" d="M1125.99,-1264.82C1097.85,-1214.25 1011.37,-1058.89 977.15,-997.42"/>
<polygon fill="#fe0300" stroke="#fe0300" points="980.045,-995.426 972.124,-988.391 973.929,-998.831 980.045,-995.426"/>
</g>
<!-- on_exit -->
<g id="node3" class="node"><title>on_exit</title>
<ellipse fill="#ccd1ff" stroke="#ccd1ff" cx="1462" cy="-1126" rx="37.0701" ry="18"/>
<text text-anchor="middle" x="1462" y="-1122.3" font-family="Times,serif" font-size="14.00">on_exit</text>
</g>
<!-- start&#45;&gt;on_exit -->
<g id="edge2" class="edge"><title>start&#45;&gt;on_exit</title>
<path fill="none" stroke="#3542b2" d="M1156.46,-1270.9C1211.57,-1244.94 1358.57,-1175.71 1426.58,-1143.68"/>
<polygon fill="#3542b2" stroke="#3542b2" points="1428.46,-1146.66 1436.02,-1139.24 1425.48,-1140.33 1428.46,-1146.66"/>
</g>
<!-- sort -->
<g id="node4" class="node"><title>sort</title>
<ellipse fill="#80ffb8" stroke="#80ffb8" cx="333" cy="-816" rx="27" ry="18"/>
<text text-anchor="middle" x="333" y="-812.3" font-family="Times,serif" font-size="14.00">sort</text>
</g>
<!-- main&#45;&gt;sort -->
<g id="edge3" class="edge"><title>main&#45;&gt;sort</title>
<path fill="none" stroke="#22d532" d="M935.859,-965.395C851.391,-950.713 586.134,-901.95 374,-834 370.844,-832.989 367.592,-831.838 364.365,-830.623"/>
<polygon fill="#22d532" stroke="#22d532" points="365.465,-827.294 354.879,-826.859 362.883,-833.801 365.465,-827.294"/>
</g>
<!-- merge -->
<g id="node5" class="node"><title>merge</title>
<ellipse fill="#bdd6ff" stroke="#bdd6ff" cx="449" cy="-816" rx="33.2209" ry="18"/>
<text text-anchor="middle" x="449" y="-812.3" font-family="Times,serif" font-size="14.00">merge</text>
</g>
<!-- main&#45;&gt;merge -->
<g id="edge4" class="edge"><title>main&#45;&gt;merge</title>
<path fill="none" stroke="#2eb4c2" d="M937.861,-962.517C854.557,-937.72 587.188,-858.134 487.205,-828.372"/>
<polygon fill="#2eb4c2" stroke="#2eb4c2" points="488.094,-824.985 477.511,-825.487 486.096,-831.694 488.094,-824.985"/>
</g>
<!-- term -->
<g id="node6" class="node"><title>term</title>
<ellipse fill="#ccd1ff" stroke="#ccd1ff" cx="823" cy="-816" rx="26.949" ry="18"/>
<text text-anchor="middle" x="823" y="-812.3" font-family="Times,serif" font-size="14.00">term</text>
</g>
<!-- main&#45;&gt;term -->
<g id="edge5" class="edge"><title>main&#45;&gt;term</title>
<path fill="none" stroke="#3544b3" d="M949.321,-955.051C924.584,-928.017 872.3,-870.877 843.353,-839.243"/>
<polygon fill="#3544b3" stroke="#3544b3" points="845.861,-836.799 836.528,-831.784 840.697,-841.525 845.861,-836.799"/>
</g>
<!-- signal -->
<g id="node7" class="node"><title>signal</title>
<ellipse fill="#cad1ff" stroke="#cad1ff" cx="1141" cy="-660" rx="31.2735" ry="18"/>
<text text-anchor="middle" x="1141" y="-656.3" font-family="Times,serif" font-size="14.00">signal</text>
</g>
<!-- main&#45;&gt;signal -->
<g id="edge6" class="edge"><title>main&#45;&gt;signal</title>
<path fill="none" stroke="#3542b2" d="M990.323,-966.227C1048.79,-956.513 1185.31,-924.704 1242,-834 1276.15,-779.37 1207.99,-713.22 1167.71,-680.825"/>
<polygon fill="#3542b2" stroke="#3542b2" points="1169.85,-678.053 1159.82,-674.625 1165.52,-683.556 1169.85,-678.053"/>
</g>
<!-- sbrk -->
<g id="node8" class="node"><title>sbrk</title>
<ellipse fill="#cad1ff" stroke="#cad1ff" cx="1621" cy="-194" rx="27" ry="18"/>
<text text-anchor="middle" x="1621" y="-190.3" font-family="Times,serif" font-size="14.00">sbrk</text>
</g>
<!-- main&#45;&gt;sbrk -->
<g id="edge7" class="edge"><title>main&#45;&gt;sbrk</title>
<path fill="none" stroke="#3542b2" d="M991.098,-967.805C1098.41,-958.814 1480.2,-921.078 1557,-834 1638.46,-741.64 1626.99,-332.839 1622.31,-222.515"/>
<polygon fill="#3542b2" stroke="#3542b2" points="1625.8,-222.066 1621.86,-212.23 1618.8,-222.374 1625.8,-222.066"/>
</g>
<!-- unlink -->
<g id="node9" class="node"><title>unlink</title>
<ellipse fill="#c5d2ff" stroke="#c5d2ff" cx="817" cy="-660" rx="33.2209" ry="18"/>
<text text-anchor="middle" x="817" y="-656.3" font-family="Times,serif" font-size="14.00">unlink</text>
</g>
<!-- main&#45;&gt;unlink -->
<g id="edge8" class="edge"><title>main&#45;&gt;unlink</title>
<path fill="none" stroke="#3542b2" d="M936.189,-964.644C882.75,-952.358 763.911,-916.605 715,-834 682.26,-778.706 749.528,-713.362 789.775,-681.097"/>
<polygon fill="#3542b2" stroke="#3542b2" points="791.954,-683.836 797.667,-674.914 787.637,-678.326 791.954,-683.836"/>
</g>
<!-- newfile -->
<g id="node10" class="node"><title>newfile</title>
<ellipse fill="#ccd1ff" stroke="#ccd1ff" cx="691" cy="-660" rx="37.0701" ry="18"/>
<text text-anchor="middle" x="691" y="-656.3" font-family="Times,serif" font-size="14.00">newfile</text>
</g>
<!-- main&#45;&gt;newfile -->
<g id="edge9" class="edge"><title>main&#45;&gt;newfile</title>
<path fill="none" stroke="#3542b2" d="M936.271,-964.953C881.649,-953.073 757.778,-917.781 703,-834 673.909,-789.506 679.239,-724.089 685.347,-687.779"/>
<polygon fill="#3542b2" stroke="#3542b2" points="688.793,-688.391 687.146,-677.925 681.907,-687.133 688.793,-688.391"/>
</g>
<!-- fclose -->
<g id="node11" class="node"><title>fclose</title>
<ellipse fill="#ccd1ff" stroke="#ccd1ff" cx="342" cy="-660" rx="31.2735" ry="18"/>
<text text-anchor="middle" x="342" y="-656.3" font-family="Times,serif" font-size="14.00">fclose</text>
</g>
<!-- main&#45;&gt;fclose -->
<g id="edge10" class="edge"><title>main&#45;&gt;fclose</title>
<path fill="none" stroke="#3542b2" d="M935.241,-966.651C834.244,-953.961 488.029,-905.881 407,-834 364.183,-796.017 349.476,-726.964 344.494,-688.587"/>
<polygon fill="#3542b2" stroke="#3542b2" points="347.916,-687.707 343.285,-678.178 340.962,-688.515 347.916,-687.707"/>
</g>
<!-- close -->
<g id="node12" class="node"><title>close</title>
<ellipse fill="#ccd1ff" stroke="#ccd1ff" cx="595" cy="-505" rx="28.3955" ry="18"/>
<text text-anchor="middle" x="595" y="-501.3" font-family="Times,serif" font-size="14.00">close</text>
</g>
<!-- main&#45;&gt;close -->
<g id="edge11" class="edge"><title>main&#45;&gt;close</title>
<path fill="none" stroke="#3542b2" d="M936.155,-964.693C880.405,-952.24 751.661,-915.797 684,-834 645.268,-787.176 611.246,-603.355 599.429,-533.31"/>
<polygon fill="#3542b2" stroke="#3542b2" points="602.822,-532.372 597.726,-523.083 595.917,-533.522 602.822,-532.372"/>
</g>
<!-- brk -->
<g id="node13" class="node"><title>brk</title>
<ellipse fill="#ccd1ff" stroke="#ccd1ff" cx="751" cy="-816" rx="27" ry="18"/>
<text text-anchor="middle" x="751" y="-812.3" font-family="Times,serif" font-size="14.00">brk</text>
</g>
<!-- main&#45;&gt;brk -->
<g id="edge12" class="edge"><title>main&#45;&gt;brk</title>
<path fill="none" stroke="#3542b2" d="M944.925,-956.955C907.36,-929.845 820.729,-867.324 777.104,-835.839"/>
<polygon fill="#3542b2" stroke="#3542b2" points="778.887,-832.81 768.73,-829.796 774.791,-838.486 778.887,-832.81"/>
</g>
<!-- setbuf -->
<g id="node14" class="node"><title>setbuf</title>
<ellipse fill="#ccd1ff" stroke="#ccd1ff" cx="32" cy="-660" rx="32.2457" ry="18"/>
<text text-anchor="middle" x="32" y="-656.3" font-family="Times,serif" font-size="14.00">setbuf</text>
</g>
<!-- main&#45;&gt;setbuf -->
<g id="edge13" class="edge"><title>main&#45;&gt;setbuf</title>
<path fill="none" stroke="#3542b2" d="M934.955,-968.048C841.205,-960.746 531.408,-930.327 297,-834 200.599,-794.385 101.56,-718.49 56.7228,-681.833"/>
<polygon fill="#3542b2" stroke="#3542b2" points="58.937,-679.122 48.9943,-675.462 54.4845,-684.524 58.937,-679.122"/>
</g>
<!-- copyproto -->
<g id="node15" class="node"><title>copyproto</title>
<ellipse fill="#ccd1ff" stroke="#ccd1ff" cx="914" cy="-816" rx="46.2191" ry="18"/>
<text text-anchor="middle" x="914" y="-812.3" font-family="Times,serif" font-size="14.00">copyproto</text>
</g>
<!-- main&#45;&gt;copyproto -->
<g id="edge14" class="edge"><title>main&#45;&gt;copyproto</title>
<path fill="none" stroke="#3542b2" d="M957.569,-953.042C949.107,-926.619 932.702,-875.395 922.614,-843.896"/>
<polygon fill="#3542b2" stroke="#3542b2" points="925.839,-842.49 919.455,-834.034 919.172,-844.625 925.839,-842.49"/>
</g>
<!-- initree -->
<g id="node16" class="node"><title>initree</title>
<ellipse fill="#ccd1ff" stroke="#ccd1ff" cx="1011" cy="-816" rx="33.2209" ry="18"/>
<text text-anchor="middle" x="1011" y="-812.3" font-family="Times,serif" font-size="14.00">initree</text>
</g>
<!-- main&#45;&gt;initree -->
<g id="edge15" class="edge"><title>main&#45;&gt;initree</title>
<path fill="none" stroke="#3542b2" d="M968.32,-953.042C976.61,-926.619 992.68,-875.395 1002.56,-843.896"/>
<polygon fill="#3542b2" stroke="#3542b2" points="1006,-844.623 1005.66,-834.034 999.323,-842.528 1006,-844.623"/>
</g>
<!-- safeoutfil -->
<g id="node17" class="node"><title>safeoutfil</title>
<ellipse fill="#ccd1ff" stroke="#ccd1ff" cx="1106" cy="-816" rx="44.2946" ry="18"/>
<text text-anchor="middle" x="1106" y="-812.3" font-family="Times,serif" font-size="14.00">safeoutfil</text>
</g>
<!-- main&#45;&gt;safeoutfil -->
<g id="edge16" class="edge"><title>main&#45;&gt;safeoutfil</title>
<path fill="none" stroke="#3542b2" d="M976.972,-955.051C1001.85,-928.433 1054.01,-872.628 1083.83,-840.721"/>
<polygon fill="#3542b2" stroke="#3542b2" points="1086.63,-842.852 1090.9,-833.157 1081.51,-838.073 1086.63,-842.852"/>
</g>
<!-- getpid -->
<g id="node18" class="node"><title>getpid</title>
<ellipse fill="#ccd1ff" stroke="#ccd1ff" cx="1201" cy="-816" rx="32.2457" ry="18"/>
<text text-anchor="middle" x="1201" y="-812.3" font-family="Times,serif" font-size="14.00">getpid</text>
</g>
<!-- main&#45;&gt;getpid -->
<g id="edge17" class="edge"><title>main&#45;&gt;getpid</title>
<path fill="none" stroke="#3542b2" d="M982.477,-957.479C1024.28,-930.605 1122.8,-867.273 1171.99,-835.648"/>
<polygon fill="#3542b2" stroke="#3542b2" points="1174.06,-838.479 1180.58,-830.127 1170.28,-832.591 1174.06,-838.479"/>
</g>
<!-- sprintf -->
<g id="node19" class="node"><title>sprintf</title>
<ellipse fill="#ccd1ff" stroke="#ccd1ff" cx="1397" cy="-816" rx="33.1991" ry="18"/>
<text text-anchor="middle" x="1397" y="-812.3" font-family="Times,serif" font-size="14.00">sprintf</text>
</g>
<!-- main&#45;&gt;sprintf -->
<g id="edge18" class="edge"><title>main&#45;&gt;sprintf</title>
<path fill="none" stroke="#3542b2" d="M987.741,-961.69C1049.57,-940.857 1215.69,-884.45 1353,-834 1355.67,-833.02 1358.42,-831.994 1361.18,-830.952"/>
<polygon fill="#3542b2" stroke="#3542b2" points="1362.43,-834.222 1370.53,-827.391 1359.94,-827.68 1362.43,-834.222"/>
</g>
<!-- creat -->
<g id="node20" class="node"><title>creat</title>
<ellipse fill="#ccd1ff" stroke="#ccd1ff" cx="1317" cy="-816" rx="27.4223" ry="18"/>
<text text-anchor="middle" x="1317" y="-812.3" font-family="Times,serif" font-size="14.00">creat</text>
</g>
<!-- main&#45;&gt;creat -->
<g id="edge19" class="edge"><title>main&#45;&gt;creat</title>
<path fill="none" stroke="#3542b2" d="M985.683,-960.196C1046.75,-933.803 1214.76,-861.19 1285.23,-830.731"/>
<polygon fill="#3542b2" stroke="#3542b2" points="1286.72,-833.902 1294.51,-826.722 1283.94,-827.477 1286.72,-833.902"/>
</g>
<!-- rem -->
<g id="node21" class="node"><title>rem</title>
<ellipse fill="#ccd1ff" stroke="#ccd1ff" cx="1046" cy="-350" rx="27" ry="18"/>
<text text-anchor="middle" x="1046" y="-346.3" font-family="Times,serif" font-size="14.00">rem</text>
</g>
<!-- main&#45;&gt;rem -->
<g id="edge20" class="edge"><title>main&#45;&gt;rem</title>
<path fill="none" stroke="#3542b2" d="M990.921,-967.68C1094.89,-958.412 1457.1,-920.287 1525,-834 1557.48,-792.723 1692.69,-746.935 1454,-487 1336.59,-359.142 1243.5,-431.643 1082,-368 1080.17,-367.278 1078.3,-366.506 1076.42,-365.704"/>
<polygon fill="#3542b2" stroke="#3542b2" points="1077.67,-362.431 1067.12,-361.538 1074.81,-368.82 1077.67,-362.431"/>
</g>
<!-- oldfile -->
<g id="node22" class="node"><title>oldfile</title>
<ellipse fill="#ccd1ff" stroke="#ccd1ff" cx="1483" cy="-816" rx="33.1991" ry="18"/>
<text text-anchor="middle" x="1483" y="-812.3" font-family="Times,serif" font-size="14.00">oldfile</text>
</g>
<!-- main&#45;&gt;oldfile -->
<g id="edge21" class="edge"><title>main&#45;&gt;oldfile</title>
<path fill="none" stroke="#3542b2" d="M988.792,-963.509C1060.7,-945.222 1269.3,-890.896 1439,-834 1441.77,-833.073 1444.61,-832.074 1447.47,-831.042"/>
<polygon fill="#3542b2" stroke="#3542b2" points="1448.93,-834.231 1457.08,-827.46 1446.49,-827.672 1448.93,-834.231"/>
</g>
<!-- malloc -->
<g id="node44" class="node"><title>malloc</title>
<ellipse fill="#ccd1ff" stroke="#ccd1ff" cx="1657" cy="-971" rx="35.1455" ry="18"/>
<text text-anchor="middle" x="1657" y="-967.3" font-family="Times,serif" font-size="14.00">malloc</text>
</g>
<!-- on_exit&#45;&gt;malloc -->
<g id="edge71" class="edge"><title>on_exit&#45;&gt;malloc</title>
<path fill="none" stroke="#29d820" d="M1480.7,-1110.33C1515.58,-1082.96 1590.67,-1024.04 1630.67,-992.66"/>
<polygon fill="#29d820" stroke="#29d820" points="1632.94,-995.329 1638.64,-986.402 1628.62,-989.822 1632.94,-995.329"/>
</g>
<!-- sort&#45;&gt;newfile -->
<g id="edge24" class="edge"><title>sort&#45;&gt;newfile</title>
<path fill="none" stroke="#3542b2" d="M355.124,-805.483C415.087,-779.689 581.15,-708.254 654.903,-676.528"/>
<polygon fill="#3542b2" stroke="#3542b2" points="656.457,-679.669 664.26,-672.502 653.691,-673.239 656.457,-679.669"/>
</g>
<!-- sort&#45;&gt;fclose -->
<g id="edge25" class="edge"><title>sort&#45;&gt;fclose</title>
<path fill="none" stroke="#3542b2" d="M333.998,-797.931C335.545,-771.451 338.539,-720.224 340.394,-688.486"/>
<polygon fill="#3542b2" stroke="#3542b2" points="343.909,-688.333 340.998,-678.146 336.92,-687.924 343.909,-688.333"/>
</g>
<!-- sort&#45;&gt;setbuf -->
<g id="edge26" class="edge"><title>sort&#45;&gt;setbuf</title>
<path fill="none" stroke="#3542b2" d="M312.311,-804.415C260.64,-777.978 125.658,-708.918 63.8001,-677.27"/>
<polygon fill="#3542b2" stroke="#3542b2" points="65.3696,-674.141 54.8729,-672.702 62.1812,-680.373 65.3696,-674.141"/>
</g>
<!-- msort -->
<g id="node23" class="node"><title>msort</title>
<ellipse fill="#b9d9ff" stroke="#b9d9ff" cx="261" cy="-660" rx="31.2965" ry="18"/>
<text text-anchor="middle" x="261" y="-656.3" font-family="Times,serif" font-size="14.00">msort</text>
</g>
<!-- sort&#45;&gt;msort -->
<g id="edge22" class="edge"><title>sort&#45;&gt;msort</title>
<path fill="none" stroke="#3459b6" d="M325.295,-798.519C312.802,-771.798 288.027,-718.809 273.145,-686.976"/>
<polygon fill="#3459b6" stroke="#3459b6" points="276.274,-685.406 268.868,-677.829 269.933,-688.37 276.274,-685.406"/>
</g>
<!-- filbuf -->
<g id="node24" class="node"><title>filbuf</title>
<ellipse fill="#c8d1ff" stroke="#c8d1ff" cx="99" cy="-505" rx="30.3206" ry="18"/>
<text text-anchor="middle" x="99" y="-501.3" font-family="Times,serif" font-size="14.00">filbuf</text>
</g>
<!-- sort&#45;&gt;filbuf -->
<g id="edge23" class="edge"><title>sort&#45;&gt;filbuf</title>
<path fill="none" stroke="#3542b2" d="M308.61,-808.131C261.045,-793.302 156.574,-753.383 111,-678 83.8427,-633.08 88.2601,-568.994 93.7378,-533.077"/>
<polygon fill="#3542b2" stroke="#3542b2" points="97.2444,-533.327 95.4381,-522.887 90.3399,-532.174 97.2444,-533.327"/>
</g>
<!-- setfil -->
<g id="node25" class="node"><title>setfil</title>
<ellipse fill="#ccd1ff" stroke="#ccd1ff" cx="754" cy="-505" rx="28.3955" ry="18"/>
<text text-anchor="middle" x="754" y="-501.3" font-family="Times,serif" font-size="14.00">setfil</text>
</g>
<!-- sort&#45;&gt;setfil -->
<g id="edge27" class="edge"><title>sort&#45;&gt;setfil</title>
<path fill="none" stroke="#3542b2" d="M348.049,-800.7C380.737,-769.961 461.234,-696.007 535,-642 599.931,-594.461 681.689,-546.61 724.604,-522.337"/>
<polygon fill="#3542b2" stroke="#3542b2" points="726.404,-525.34 733.401,-517.385 722.97,-519.241 726.404,-525.34"/>
</g>
<!-- merge&#45;&gt;unlink -->
<g id="edge36" class="edge"><title>merge&#45;&gt;unlink</title>
<path fill="none" stroke="#3542b2" d="M474.585,-804.293C539.166,-777.268 708.848,-706.259 782.292,-675.524"/>
<polygon fill="#3542b2" stroke="#3542b2" points="783.711,-678.725 791.585,-671.636 781.009,-672.268 783.711,-678.725"/>
</g>
<!-- merge&#45;&gt;fclose -->
<g id="edge38" class="edge"><title>merge&#45;&gt;fclose</title>
<path fill="none" stroke="#3542b2" d="M437.751,-798.81C418.918,-771.705 380.906,-716.996 358.863,-685.27"/>
<polygon fill="#3542b2" stroke="#3542b2" points="361.678,-683.188 353.098,-676.973 355.93,-687.182 361.678,-683.188"/>
</g>
<!-- merge&#45;&gt;setbuf -->
<g id="edge41" class="edge"><title>merge&#45;&gt;setbuf</title>
<path fill="none" stroke="#3542b2" d="M422.28,-805.132C349.817,-778.371 149.528,-704.404 67.615,-674.153"/>
<polygon fill="#3542b2" stroke="#3542b2" points="68.8223,-670.868 58.229,-670.686 66.3972,-677.434 68.8223,-670.868"/>
</g>
<!-- merge&#45;&gt;setfil -->
<g id="edge39" class="edge"><title>merge&#45;&gt;setfil</title>
<path fill="none" stroke="#3542b2" d="M480.626,-810.249C541.689,-799.243 675.232,-765.88 737,-678 767.336,-634.839 764.023,-569.838 758.97,-533.351"/>
<polygon fill="#3542b2" stroke="#3542b2" points="762.358,-532.352 757.382,-522.999 755.439,-533.414 762.358,-532.352"/>
</g>
<!-- insert -->
<g id="node27" class="node"><title>insert</title>
<ellipse fill="#ccd1ff" stroke="#ccd1ff" cx="517" cy="-505" rx="30.3206" ry="18"/>
<text text-anchor="middle" x="517" y="-501.3" font-family="Times,serif" font-size="14.00">insert</text>
</g>
<!-- merge&#45;&gt;insert -->
<g id="edge33" class="edge"><title>merge&#45;&gt;insert</title>
<path fill="none" stroke="#3542b2" d="M448.884,-797.556C449.032,-766.059 450.995,-697.784 464,-642 473.275,-602.217 491.885,-558.61 504.395,-531.769"/>
<polygon fill="#3542b2" stroke="#3542b2" points="507.584,-533.213 508.7,-522.677 501.257,-530.218 507.584,-533.213"/>
</g>
<!-- wline -->
<g id="node28" class="node"><title>wline</title>
<ellipse fill="#d7ff3e" stroke="#d7ff3e" cx="184" cy="-505" rx="30.3206" ry="18"/>
<text text-anchor="middle" x="184" y="-501.3" font-family="Times,serif" font-size="14.00">wline</text>
</g>
<!-- merge&#45;&gt;wline -->
<g id="edge35" class="edge"><title>merge&#45;&gt;wline</title>
<path fill="none" stroke="#3542b2" d="M420.756,-806.348C371.848,-789.834 271.77,-748.994 221,-678 189.843,-634.432 184.01,-569.846 183.426,-533.479"/>
<polygon fill="#3542b2" stroke="#3542b2" points="186.925,-533.142 183.392,-523.154 179.925,-533.165 186.925,-533.142"/>
</g>
<!-- cmpsave -->
<g id="node30" class="node"><title>cmpsave</title>
<ellipse fill="#ccd1ff" stroke="#ccd1ff" cx="388" cy="-505" rx="42.3701" ry="18"/>
<text text-anchor="middle" x="388" y="-501.3" font-family="Times,serif" font-size="14.00">cmpsave</text>
</g>
<!-- merge&#45;&gt;cmpsave -->
<g id="edge42" class="edge"><title>merge&#45;&gt;cmpsave</title>
<path fill="none" stroke="#3542b2" d="M445.633,-797.947C435.552,-746.877 405.545,-594.876 393.296,-532.829"/>
<polygon fill="#3542b2" stroke="#3542b2" points="396.727,-532.133 391.356,-523.001 389.859,-533.489 396.727,-532.133"/>
</g>
<!-- rline -->
<g id="node31" class="node"><title>rline</title>
<ellipse fill="#6fff82" stroke="#6fff82" cx="147" cy="-660" rx="27" ry="18"/>
<text text-anchor="middle" x="147" y="-656.3" font-family="Times,serif" font-size="14.00">rline</text>
</g>
<!-- merge&#45;&gt;rline -->
<g id="edge34" class="edge"><title>merge&#45;&gt;rline</title>
<path fill="none" stroke="#3542b2" d="M425.303,-802.916C370.791,-775.119 236.598,-706.689 176.702,-676.146"/>
<polygon fill="#3542b2" stroke="#3542b2" points="178.249,-673.006 167.75,-671.581 175.069,-679.242 178.249,-673.006"/>
</g>
<!-- fopen -->
<g id="node32" class="node"><title>fopen</title>
<ellipse fill="#ccd1ff" stroke="#ccd1ff" cx="672" cy="-505" rx="30.3206" ry="18"/>
<text text-anchor="middle" x="672" y="-501.3" font-family="Times,serif" font-size="14.00">fopen</text>
</g>
<!-- merge&#45;&gt;fopen -->
<g id="edge37" class="edge"><title>merge&#45;&gt;fopen</title>
<path fill="none" stroke="#3542b2" d="M455.178,-798.262C467.473,-766.164 497.114,-694.49 535,-642 568.168,-596.047 617.295,-551.462 646.825,-526.488"/>
<polygon fill="#3542b2" stroke="#3542b2" points="649.181,-529.081 654.605,-519.98 644.689,-523.712 649.181,-529.081"/>
</g>
<!-- mul -->
<g id="node33" class="node"><title>mul</title>
<ellipse fill="#ccd1ff" stroke="#ccd1ff" cx="571" cy="-660" rx="27" ry="18"/>
<text text-anchor="middle" x="571" y="-656.3" font-family="Times,serif" font-size="14.00">mul</text>
</g>
<!-- merge&#45;&gt;mul -->
<g id="edge40" class="edge"><title>merge&#45;&gt;mul</title>
<path fill="none" stroke="#3542b2" d="M461.597,-799.099C483.281,-771.728 527.739,-715.608 552.792,-683.984"/>
<polygon fill="#3542b2" stroke="#3542b2" points="555.547,-686.142 559.014,-676.13 550.061,-681.795 555.547,-686.142"/>
</g>
<!-- term&#45;&gt;signal -->
<g id="edge51" class="edge"><title>term&#45;&gt;signal</title>
<path fill="none" stroke="#3542b2" d="M844.359,-804.656C898.799,-778.293 1043.04,-708.438 1108.22,-676.876"/>
<polygon fill="#3542b2" stroke="#3542b2" points="1110.13,-679.838 1117.61,-672.329 1107.08,-673.538 1110.13,-679.838"/>
</g>
<!-- term&#45;&gt;unlink -->
<g id="edge50" class="edge"><title>term&#45;&gt;unlink</title>
<path fill="none" stroke="#3542b2" d="M822.335,-797.931C821.303,-771.451 819.307,-720.224 818.071,-688.486"/>
<polygon fill="#3542b2" stroke="#3542b2" points="821.555,-688.002 817.668,-678.146 814.56,-688.274 821.555,-688.002"/>
</g>
<!-- term&#45;&gt;setfil -->
<g id="edge52" class="edge"><title>term&#45;&gt;setfil</title>
<path fill="none" stroke="#3542b2" d="M841.31,-802.49C879.608,-774.683 962.143,-705.204 931,-642 900.967,-581.048 829.039,-539.79 786.696,-519.843"/>
<polygon fill="#3542b2" stroke="#3542b2" points="787.922,-516.555 777.373,-515.57 785.006,-522.918 787.922,-516.555"/>
</g>
<!-- exit -->
<g id="node39" class="node"><title>exit</title>
<ellipse fill="#ccd1ff" stroke="#ccd1ff" cx="895" cy="-660" rx="27" ry="18"/>
<text text-anchor="middle" x="895" y="-656.3" font-family="Times,serif" font-size="14.00">exit</text>
</g>
<!-- term&#45;&gt;exit -->
<g id="edge53" class="edge"><title>term&#45;&gt;exit</title>
<path fill="none" stroke="#3542b2" d="M830.705,-798.519C843.264,-771.657 868.234,-718.25 883.089,-686.476"/>
<polygon fill="#3542b2" stroke="#3542b2" points="886.285,-687.903 887.35,-677.362 879.944,-684.939 886.285,-687.903"/>
</g>
<!-- sigvec -->
<g id="node53" class="node"><title>sigvec</title>
<ellipse fill="#ccd1ff" stroke="#ccd1ff" cx="1141" cy="-505" rx="33.2209" ry="18"/>
<text text-anchor="middle" x="1141" y="-501.3" font-family="Times,serif" font-size="14.00">sigvec</text>
</g>
<!-- signal&#45;&gt;sigvec -->
<g id="edge72" class="edge"><title>signal&#45;&gt;sigvec</title>
<path fill="none" stroke="#3542b2" d="M1141,-641.746C1141,-615.461 1141,-565.13 1141,-533.688"/>
<polygon fill="#3542b2" stroke="#3542b2" points="1144.5,-533.425 1141,-523.425 1137.5,-533.425 1144.5,-533.425"/>
</g>
<!-- newfile&#45;&gt;setfil -->
<g id="edge58" class="edge"><title>newfile&#45;&gt;setfil</title>
<path fill="none" stroke="#3542b2" d="M697.983,-642.042C708.968,-615.364 730.364,-563.403 743.299,-531.988"/>
<polygon fill="#3542b2" stroke="#3542b2" points="746.606,-533.149 747.177,-522.569 740.133,-530.483 746.606,-533.149"/>
</g>
<!-- newfile&#45;&gt;fopen -->
<g id="edge57" class="edge"><title>newfile&#45;&gt;fopen</title>
<path fill="none" stroke="#344db4" d="M688.857,-641.746C685.576,-615.321 679.276,-564.593 675.376,-533.188"/>
<polygon fill="#344db4" stroke="#344db4" points="678.812,-532.45 674.106,-522.957 671.865,-533.312 678.812,-532.45"/>
</g>
<!-- fclose&#45;&gt;close -->
<g id="edge60" class="edge"><title>fclose&#45;&gt;close</title>
<path fill="none" stroke="#3542b2" d="M363.135,-646.218C408.51,-618.779 515.276,-554.213 566.546,-523.208"/>
<polygon fill="#3542b2" stroke="#3542b2" points="568.409,-526.171 575.155,-518.001 564.787,-520.181 568.409,-526.171"/>
</g>
<!-- fflush -->
<g id="node43" class="node"><title>fflush</title>
<ellipse fill="#ccd1ff" stroke="#ccd1ff" cx="354" cy="-350" rx="31.2965" ry="18"/>
<text text-anchor="middle" x="354" y="-346.3" font-family="Times,serif" font-size="14.00">fflush</text>
</g>
<!-- fclose&#45;&gt;fflush -->
<g id="edge59" class="edge"><title>fclose&#45;&gt;fflush</title>
<path fill="none" stroke="#3547b3" d="M357.596,-644.08C380.671,-620.801 422.909,-573.27 439,-523 457.16,-466.265 408.462,-404.856 377.458,-372.993"/>
<polygon fill="#3547b3" stroke="#3547b3" points="379.556,-370.142 370.008,-365.55 374.609,-375.094 379.556,-370.142"/>
</g>
<!-- doprnt -->
<g id="node58" class="node"><title>doprnt</title>
<ellipse fill="#ccd1ff" stroke="#ccd1ff" cx="1397" cy="-660" rx="33.1991" ry="18"/>
<text text-anchor="middle" x="1397" y="-656.3" font-family="Times,serif" font-size="14.00">doprnt</text>
</g>
<!-- sprintf&#45;&gt;doprnt -->
<g id="edge85" class="edge"><title>sprintf&#45;&gt;doprnt</title>
<path fill="none" stroke="#3542b2" d="M1397,-797.931C1397,-771.451 1397,-720.224 1397,-688.486"/>
<polygon fill="#3542b2" stroke="#3542b2" points="1400.5,-688.146 1397,-678.146 1393.5,-688.146 1400.5,-688.146"/>
</g>
<!-- qsort -->
<g id="node26" class="node"><title>qsort</title>
<ellipse fill="#8dffdc" stroke="#8dffdc" cx="261" cy="-505" rx="28.3955" ry="18"/>
<text text-anchor="middle" x="261" y="-501.3" font-family="Times,serif" font-size="14.00">qsort</text>
</g>
<!-- msort&#45;&gt;qsort -->
<g id="edge28" class="edge"><title>msort&#45;&gt;qsort</title>
<path fill="none" stroke="#3542b2" d="M261,-641.746C261,-615.461 261,-565.13 261,-533.688"/>
<polygon fill="#3542b2" stroke="#3542b2" points="264.5,-533.425 261,-523.425 257.5,-533.425 264.5,-533.425"/>
</g>
<!-- msort&#45;&gt;insert -->
<g id="edge29" class="edge"><title>msort&#45;&gt;insert</title>
<path fill="none" stroke="#3542b2" d="M281.95,-646.479C327.461,-619.279 435.456,-554.735 487.695,-523.514"/>
<polygon fill="#3542b2" stroke="#3542b2" points="489.688,-526.401 496.476,-518.266 486.097,-520.392 489.688,-526.401"/>
</g>
<!-- msort&#45;&gt;wline -->
<g id="edge30" class="edge"><title>msort&#45;&gt;wline</title>
<path fill="none" stroke="#3542b2" d="M252.76,-642.626C239.399,-616.079 212.904,-563.433 196.988,-531.808"/>
<polygon fill="#3542b2" stroke="#3542b2" points="200.036,-530.079 192.415,-522.72 193.784,-533.226 200.036,-530.079"/>
</g>
<!-- div -->
<g id="node29" class="node"><title>div</title>
<ellipse fill="#ccd1ff" stroke="#ccd1ff" cx="753" cy="-350" rx="27" ry="18"/>
<text text-anchor="middle" x="753" y="-346.3" font-family="Times,serif" font-size="14.00">div</text>
</g>
<!-- msort&#45;&gt;div -->
<g id="edge31" class="edge"><title>msort&#45;&gt;div</title>
<path fill="none" stroke="#3542b2" d="M263.753,-641.846C270.18,-607.407 289.402,-529.519 337,-487 468.984,-369.097 552.15,-432.382 717,-368 718.835,-367.283 720.707,-366.516 722.586,-365.717"/>
<polygon fill="#3542b2" stroke="#3542b2" points="724.189,-368.835 731.892,-361.56 721.334,-362.443 724.189,-368.835"/>
</g>
<!-- msort&#45;&gt;cmpsave -->
<g id="edge32" class="edge"><title>msort&#45;&gt;cmpsave</title>
<path fill="none" stroke="#3542b2" d="M273.876,-643.488C295.989,-616.847 341.345,-562.206 367.733,-530.416"/>
<polygon fill="#3542b2" stroke="#3542b2" points="370.629,-532.407 374.323,-522.477 365.243,-527.936 370.629,-532.407"/>
</g>
<!-- read -->
<g id="node38" class="node"><title>read</title>
<ellipse fill="#b5dcff" stroke="#b5dcff" cx="99" cy="-350" rx="27" ry="18"/>
<text text-anchor="middle" x="99" y="-346.3" font-family="Times,serif" font-size="14.00">read</text>
</g>
<!-- filbuf&#45;&gt;read -->
<g id="edge49" class="edge"><title>filbuf&#45;&gt;read</title>
<path fill="none" stroke="#3542b2" d="M99,-486.746C99,-460.461 99,-410.13 99,-378.688"/>
<polygon fill="#3542b2" stroke="#3542b2" points="102.5,-378.425 99,-368.425 95.5001,-378.425 102.5,-378.425"/>
</g>
<!-- setfil&#45;&gt;rem -->
<g id="edge78" class="edge"><title>setfil&#45;&gt;rem</title>
<path fill="none" stroke="#3542b2" d="M775.471,-492.75C826.873,-465.817 957.098,-397.582 1016.11,-366.66"/>
<polygon fill="#3542b2" stroke="#3542b2" points="1018.05,-369.597 1025.28,-361.856 1014.8,-363.397 1018.05,-369.597"/>
</g>
<!-- setfil&#45;&gt;div -->
<g id="edge77" class="edge"><title>setfil&#45;&gt;div</title>
<path fill="none" stroke="#3542b2" d="M753.887,-486.746C753.715,-460.461 753.386,-410.13 753.181,-378.688"/>
<polygon fill="#3542b2" stroke="#3542b2" points="756.679,-378.402 753.114,-368.425 749.679,-378.448 756.679,-378.402"/>
</g>
<!-- cmpa -->
<g id="node34" class="node"><title>cmpa</title>
<ellipse fill="#ff0000" stroke="#ff0000" cx="470" cy="-350" rx="30.3206" ry="18"/>
<text text-anchor="middle" x="470" y="-346.3" font-family="Times,serif" font-size="14.00">cmpa</text>
</g>
<!-- qsort&#45;&gt;cmpa -->
<g id="edge45" class="edge"><title>qsort&#45;&gt;cmpa</title>
<path fill="none" stroke="#3542b2" d="M278.819,-490.955C315.575,-464.048 399.982,-402.257 443.293,-370.551"/>
<polygon fill="#3542b2" stroke="#3542b2" points="445.629,-373.179 451.63,-364.448 441.494,-367.531 445.629,-373.179"/>
</g>
<!-- insert&#45;&gt;cmpa -->
<g id="edge43" class="edge"><title>insert&#45;&gt;cmpa</title>
<path fill="none" stroke="#3542b2" d="M511.791,-487.042C503.674,-460.619 487.938,-409.395 478.262,-377.896"/>
<polygon fill="#3542b2" stroke="#3542b2" points="481.515,-376.566 475.233,-368.034 474.824,-378.621 481.515,-376.566"/>
</g>
<!-- getfreehdr -->
<g id="node47" class="node"><title>getfreehdr</title>
<ellipse fill="#ccd1ff" stroke="#ccd1ff" cx="954" cy="-350" rx="46.1964" ry="18"/>
<text text-anchor="middle" x="954" y="-346.3" font-family="Times,serif" font-size="14.00">getfreehdr</text>
</g>
<!-- insert&#45;&gt;getfreehdr -->
<g id="edge76" class="edge"><title>insert&#45;&gt;getfreehdr</title>
<path fill="none" stroke="#3542b2" d="M540.575,-493.649C545.944,-491.384 551.645,-489.052 557,-487 683.377,-438.57 835.386,-388.815 909.284,-365.158"/>
<polygon fill="#3542b2" stroke="#3542b2" points="910.722,-368.373 919.183,-361.996 908.592,-361.705 910.722,-368.373"/>
</g>
<!-- flsbuf -->
<g id="node35" class="node"><title>flsbuf</title>
<ellipse fill="#ccd1ff" stroke="#ccd1ff" cx="202" cy="-350" rx="31.2965" ry="18"/>
<text text-anchor="middle" x="202" y="-346.3" font-family="Times,serif" font-size="14.00">flsbuf</text>
</g>
<!-- wline&#45;&gt;flsbuf -->
<g id="edge44" class="edge"><title>wline&#45;&gt;flsbuf</title>
<path fill="none" stroke="#3542b2" d="M186.03,-486.746C189.122,-460.461 195.044,-410.13 198.743,-378.688"/>
<polygon fill="#3542b2" stroke="#3542b2" points="202.257,-378.766 199.95,-368.425 195.305,-377.948 202.257,-378.766"/>
</g>
<!-- rline&#45;&gt;filbuf -->
<g id="edge46" class="edge"><title>rline&#45;&gt;filbuf</title>
<path fill="none" stroke="#3542b2" d="M141.772,-642.335C133.52,-616.032 117.397,-564.64 107.475,-533.014"/>
<polygon fill="#3542b2" stroke="#3542b2" points="110.701,-531.605 104.368,-523.111 104.022,-533.701 110.701,-531.605"/>
</g>
<!-- endopen -->
<g id="node40" class="node"><title>endopen</title>
<ellipse fill="#ccd1ff" stroke="#ccd1ff" cx="577" cy="-350" rx="39.9464" ry="18"/>
<text text-anchor="middle" x="577" y="-346.3" font-family="Times,serif" font-size="14.00">endopen</text>
</g>
<!-- fopen&#45;&gt;endopen -->
<g id="edge55" class="edge"><title>fopen&#45;&gt;endopen</title>
<path fill="none" stroke="#354ab3" d="M662.013,-487.915C645.537,-461.38 612.528,-408.219 592.84,-376.512"/>
<polygon fill="#354ab3" stroke="#354ab3" points="595.677,-374.445 587.428,-367.795 589.73,-378.137 595.677,-374.445"/>
</g>
<!-- findiop -->
<g id="node42" class="node"><title>findiop</title>
<ellipse fill="#ccd1ff" stroke="#ccd1ff" cx="672" cy="-350" rx="36.096" ry="18"/>
<text text-anchor="middle" x="672" y="-346.3" font-family="Times,serif" font-size="14.00">findiop</text>
</g>
<!-- fopen&#45;&gt;findiop -->
<g id="edge56" class="edge"><title>fopen&#45;&gt;findiop</title>
<path fill="none" stroke="#3542b2" d="M672,-486.746C672,-460.461 672,-410.13 672,-378.688"/>
<polygon fill="#3542b2" stroke="#3542b2" points="675.5,-378.425 672,-368.425 668.5,-378.425 675.5,-378.425"/>
</g>
<!-- xflsbuf -->
<g id="node36" class="node"><title>xflsbuf</title>
<ellipse fill="#ccd1ff" stroke="#ccd1ff" cx="278" cy="-194" rx="35.6194" ry="18"/>
<text text-anchor="middle" x="278" y="-190.3" font-family="Times,serif" font-size="14.00">xflsbuf</text>
</g>
<!-- flsbuf&#45;&gt;xflsbuf -->
<g id="edge48" class="edge"><title>flsbuf&#45;&gt;xflsbuf</title>
<path fill="none" stroke="#3542b2" d="M210.133,-332.519C223.32,-305.798 249.471,-252.809 265.18,-220.976"/>
<polygon fill="#3542b2" stroke="#3542b2" points="268.408,-222.345 269.695,-211.829 262.131,-219.248 268.408,-222.345"/>
</g>
<!-- write -->
<g id="node37" class="node"><title>write</title>
<ellipse fill="#9cfffe" stroke="#9cfffe" cx="278" cy="-39" rx="28.3955" ry="18"/>
<text text-anchor="middle" x="278" y="-35.3" font-family="Times,serif" font-size="14.00">write</text>
</g>
<!-- xflsbuf&#45;&gt;write -->
<g id="edge47" class="edge"><title>xflsbuf&#45;&gt;write</title>
<path fill="none" stroke="#3542b2" d="M278,-175.746C278,-149.461 278,-99.1295 278,-67.6883"/>
<polygon fill="#3542b2" stroke="#3542b2" points="281.5,-67.4253 278,-57.4253 274.5,-67.4254 281.5,-67.4253"/>
</g>
<!-- open -->
<g id="node41" class="node"><title>open</title>
<ellipse fill="#c8d1ff" stroke="#c8d1ff" cx="577" cy="-194" rx="27.4223" ry="18"/>
<text text-anchor="middle" x="577" y="-190.3" font-family="Times,serif" font-size="14.00">open</text>
</g>
<!-- endopen&#45;&gt;open -->
<g id="edge54" class="edge"><title>endopen&#45;&gt;open</title>
<path fill="none" stroke="#3542b2" d="M577,-331.931C577,-305.451 577,-254.224 577,-222.486"/>
<polygon fill="#3542b2" stroke="#3542b2" points="580.5,-222.146 577,-212.146 573.5,-222.146 580.5,-222.146"/>
</g>
<!-- fflush&#45;&gt;xflsbuf -->
<g id="edge61" class="edge"><title>fflush&#45;&gt;xflsbuf</title>
<path fill="none" stroke="#344db4" d="M345.867,-332.519C332.68,-305.798 306.529,-252.809 290.82,-220.976"/>
<polygon fill="#344db4" stroke="#344db4" points="293.869,-219.248 286.305,-211.829 287.592,-222.345 293.869,-219.248"/>
</g>
<!-- morecore -->
<g id="node45" class="node"><title>morecore</title>
<ellipse fill="#ccd1ff" stroke="#ccd1ff" cx="1657" cy="-816" rx="44.2946" ry="18"/>
<text text-anchor="middle" x="1657" y="-812.3" font-family="Times,serif" font-size="14.00">morecore</text>
</g>
<!-- malloc&#45;&gt;morecore -->
<g id="edge62" class="edge"><title>malloc&#45;&gt;morecore</title>
<path fill="none" stroke="#29d820" d="M1657,-952.746C1657,-926.461 1657,-876.13 1657,-844.688"/>
<polygon fill="#29d820" stroke="#29d820" points="1660.5,-844.425 1657,-834.425 1653.5,-844.425 1660.5,-844.425"/>
</g>
<!-- demote -->
<g id="node46" class="node"><title>demote</title>
<ellipse fill="#ccd1ff" stroke="#ccd1ff" cx="1756" cy="-816" rx="37.0701" ry="18"/>
<text text-anchor="middle" x="1756" y="-812.3" font-family="Times,serif" font-size="14.00">demote</text>
</g>
<!-- malloc&#45;&gt;demote -->
<g id="edge63" class="edge"><title>malloc&#45;&gt;demote</title>
<path fill="none" stroke="#3542b2" d="M1667.59,-953.626C1684.85,-926.964 1719.13,-873.979 1739.56,-842.4"/>
<polygon fill="#3542b2" stroke="#3542b2" points="1742.69,-844.017 1745.18,-833.72 1736.81,-840.214 1742.69,-844.017"/>
</g>
<!-- morecore&#45;&gt;sbrk -->
<g id="edge64" class="edge"><title>morecore&#45;&gt;sbrk</title>
<path fill="none" stroke="#3542b2" d="M1656.57,-797.868C1654.92,-735.412 1648.44,-514.077 1635,-332 1632.19,-293.9 1627.43,-249.988 1624.25,-222.362"/>
<polygon fill="#3542b2" stroke="#3542b2" points="1627.71,-221.802 1623.08,-212.274 1620.76,-222.611 1627.71,-221.802"/>
</g>
<!-- morecore&#45;&gt;getfreehdr -->
<g id="edge65" class="edge"><title>morecore&#45;&gt;getfreehdr</title>
<path fill="none" stroke="#3542b2" d="M1654.51,-797.963C1645.26,-737.002 1610.96,-531.019 1564,-487 1380.26,-314.776 1253.81,-431.076 1010,-368 1006.23,-367.026 1002.34,-365.963 998.447,-364.859"/>
<polygon fill="#3542b2" stroke="#3542b2" points="999.404,-361.493 988.824,-362.061 997.449,-368.214 999.404,-361.493"/>
</g>
<!-- free -->
<g id="node48" class="node"><title>free</title>
<ellipse fill="#ccd1ff" stroke="#ccd1ff" cx="1268" cy="-660" rx="27" ry="18"/>
<text text-anchor="middle" x="1268" y="-656.3" font-family="Times,serif" font-size="14.00">free</text>
</g>
<!-- morecore&#45;&gt;free -->
<g id="edge66" class="edge"><title>morecore&#45;&gt;free</title>
<path fill="none" stroke="#3542b2" d="M1626.48,-802.916C1554.46,-774.405 1374.47,-703.15 1300.51,-673.871"/>
<polygon fill="#3542b2" stroke="#3542b2" points="1301.39,-670.453 1290.8,-670.027 1298.81,-676.962 1301.39,-670.453"/>
</g>
<!-- getpagesize -->
<g id="node49" class="node"><title>getpagesize</title>
<ellipse fill="#ccd1ff" stroke="#ccd1ff" cx="1739" cy="-660" rx="51.4931" ry="18"/>
<text text-anchor="middle" x="1739" y="-656.3" font-family="Times,serif" font-size="14.00">getpagesize</text>
</g>
<!-- morecore&#45;&gt;getpagesize -->
<g id="edge67" class="edge"><title>morecore&#45;&gt;getpagesize</title>
<path fill="none" stroke="#3542b2" d="M1665.93,-798.226C1680.23,-771.38 1708.35,-718.567 1725.23,-686.863"/>
<polygon fill="#3542b2" stroke="#3542b2" points="1728.47,-688.225 1730.08,-677.753 1722.29,-684.935 1728.47,-688.225"/>
</g>
<!-- putfreehdr -->
<g id="node50" class="node"><title>putfreehdr</title>
<ellipse fill="#ccd1ff" stroke="#ccd1ff" cx="1856" cy="-660" rx="47.169" ry="18"/>
<text text-anchor="middle" x="1856" y="-656.3" font-family="Times,serif" font-size="14.00">putfreehdr</text>
</g>
<!-- morecore&#45;&gt;putfreehdr -->
<g id="edge68" class="edge"><title>morecore&#45;&gt;putfreehdr</title>
<path fill="none" stroke="#3542b2" d="M1676.81,-799.671C1712.4,-772.126 1787.26,-714.195 1828.05,-682.626"/>
<polygon fill="#3542b2" stroke="#3542b2" points="1830.21,-685.384 1835.98,-676.496 1825.93,-679.848 1830.21,-685.384"/>
</g>
<!-- udiv -->
<g id="node51" class="node"><title>udiv</title>
<ellipse fill="#ccd1ff" stroke="#ccd1ff" cx="1528" cy="-505" rx="27" ry="18"/>
<text text-anchor="middle" x="1528" y="-501.3" font-family="Times,serif" font-size="14.00">udiv</text>
</g>
<!-- morecore&#45;&gt;udiv -->
<g id="edge69" class="edge"><title>morecore&#45;&gt;udiv</title>
<path fill="none" stroke="#3542b2" d="M1649.88,-797.947C1628.47,-746.652 1564.54,-593.532 1538.86,-532.013"/>
<polygon fill="#3542b2" stroke="#3542b2" points="1542.02,-530.503 1534.94,-522.623 1535.56,-533.2 1542.02,-530.503"/>
</g>
<!-- umul -->
<g id="node52" class="node"><title>umul</title>
<ellipse fill="#ccd1ff" stroke="#ccd1ff" cx="1951" cy="-660" rx="29.3722" ry="18"/>
<text text-anchor="middle" x="1951" y="-656.3" font-family="Times,serif" font-size="14.00">umul</text>
</g>
<!-- morecore&#45;&gt;umul -->
<g id="edge70" class="edge"><title>morecore&#45;&gt;umul</title>
<path fill="none" stroke="#3542b2" d="M1683.09,-801.334C1737.4,-772.883 1862.38,-707.422 1920.38,-677.037"/>
<polygon fill="#3542b2" stroke="#3542b2" points="1922.19,-680.041 1929.43,-672.301 1918.94,-673.84 1922.19,-680.041"/>
</g>
<!-- getfreehdr&#45;&gt;sbrk -->
<g id="edge74" class="edge"><title>getfreehdr&#45;&gt;sbrk</title>
<path fill="none" stroke="#3542b2" d="M988.837,-337.988C995.819,-335.905 1003.12,-333.812 1010,-332 1227.09,-274.796 1491.53,-220.733 1585.66,-201.967"/>
<polygon fill="#3542b2" stroke="#3542b2" points="1586.39,-205.39 1595.52,-200.007 1585.03,-198.525 1586.39,-205.39"/>
</g>
<!-- free&#45;&gt;insert -->
<g id="edge75" class="edge"><title>free&#45;&gt;insert</title>
<path fill="none" stroke="#3542b2" d="M1242.5,-653.986C1225.16,-650.584 1201.7,-645.997 1181,-642 903.787,-588.483 827.122,-605.127 557,-523 554.536,-522.251 552.019,-521.4 549.506,-520.486"/>
<polygon fill="#3542b2" stroke="#3542b2" points="550.543,-517.134 539.956,-516.744 547.989,-523.651 550.543,-517.134"/>
</g>
<!-- sigblock -->
<g id="node56" class="node"><title>sigblock</title>
<ellipse fill="#ccd1ff" stroke="#ccd1ff" cx="1249" cy="-350" rx="39.9464" ry="18"/>
<text text-anchor="middle" x="1249" y="-346.3" font-family="Times,serif" font-size="14.00">sigblock</text>
</g>
<!-- sigvec&#45;&gt;sigblock -->
<g id="edge79" class="edge"><title>sigvec&#45;&gt;sigblock</title>
<path fill="none" stroke="#3542b2" d="M1152.35,-487.915C1171.26,-461.126 1209.33,-407.198 1231.63,-375.606"/>
<polygon fill="#3542b2" stroke="#3542b2" points="1234.57,-377.518 1237.47,-367.329 1228.85,-373.481 1234.57,-377.518"/>
</g>
<!-- sigsetmask -->
<g id="node57" class="node"><title>sigsetmask</title>
<ellipse fill="#ccd1ff" stroke="#ccd1ff" cx="1141" cy="-350" rx="50.0684" ry="18"/>
<text text-anchor="middle" x="1141" y="-346.3" font-family="Times,serif" font-size="14.00">sigsetmask</text>
</g>
<!-- sigvec&#45;&gt;sigsetmask -->
<g id="edge80" class="edge"><title>sigvec&#45;&gt;sigsetmask</title>
<path fill="none" stroke="#3542b2" d="M1141,-486.746C1141,-460.461 1141,-410.13 1141,-378.688"/>
<polygon fill="#3542b2" stroke="#3542b2" points="1144.5,-378.425 1141,-368.425 1137.5,-378.425 1144.5,-378.425"/>
</g>
<!-- moncontrol -->
<g id="node54" class="node"><title>moncontrol</title>
<ellipse fill="#cad1ff" stroke="#cad1ff" cx="1548" cy="-1282" rx="51.4931" ry="18"/>
<text text-anchor="middle" x="1548" y="-1278.3" font-family="Times,serif" font-size="14.00">moncontrol</text>
</g>
<!-- profil -->
<g id="node55" class="node"><title>profil</title>
<ellipse fill="#ccd1ff" stroke="#ccd1ff" cx="1548" cy="-1126" rx="30.3206" ry="18"/>
<text text-anchor="middle" x="1548" y="-1122.3" font-family="Times,serif" font-size="14.00">profil</text>
</g>
<!-- moncontrol&#45;&gt;profil -->
<g id="edge73" class="edge"><title>moncontrol&#45;&gt;profil</title>
<path fill="none" stroke="#3542b2" d="M1548,-1263.93C1548,-1237.45 1548,-1186.22 1548,-1154.49"/>
<polygon fill="#3542b2" stroke="#3542b2" points="1551.5,-1154.15 1548,-1144.15 1544.5,-1154.15 1551.5,-1154.15"/>
</g>
<!-- doprnt&#45;&gt;udiv -->
<g id="edge82" class="edge"><title>doprnt&#45;&gt;udiv</title>
<path fill="none" stroke="#3542b2" d="M1410.53,-643.203C1433.81,-616.009 1481.55,-560.254 1508.45,-528.834"/>
<polygon fill="#3542b2" stroke="#3542b2" points="1511.28,-530.904 1515.13,-521.032 1505.97,-526.352 1511.28,-530.904"/>
</g>
<!-- urem -->
<g id="node59" class="node"><title>urem</title>
<ellipse fill="#ccd1ff" stroke="#ccd1ff" cx="1416" cy="-505" rx="29.3722" ry="18"/>
<text text-anchor="middle" x="1416" y="-501.3" font-family="Times,serif" font-size="14.00">urem</text>
</g>
<!-- doprnt&#45;&gt;urem -->
<g id="edge81" class="edge"><title>doprnt&#45;&gt;urem</title>
<path fill="none" stroke="#3542b2" d="M1399.14,-641.746C1402.42,-615.321 1408.72,-564.593 1412.62,-533.188"/>
<polygon fill="#3542b2" stroke="#3542b2" points="1416.14,-533.312 1413.89,-522.957 1409.19,-532.45 1416.14,-533.312"/>
</g>
<!-- strlen -->
<g id="node60" class="node"><title>strlen</title>
<ellipse fill="#ccd1ff" stroke="#ccd1ff" cx="1223" cy="-505" rx="30.3206" ry="18"/>
<text text-anchor="middle" x="1223" y="-501.3" font-family="Times,serif" font-size="14.00">strlen</text>
</g>
<!-- doprnt&#45;&gt;strlen -->
<g id="edge83" class="edge"><title>doprnt&#45;&gt;strlen</title>
<path fill="none" stroke="#3542b2" d="M1380.32,-644.33C1349.32,-617.072 1282.74,-558.533 1246.94,-527.055"/>
<polygon fill="#3542b2" stroke="#3542b2" points="1249.2,-524.377 1239.38,-520.402 1244.58,-529.634 1249.2,-524.377"/>
</g>
<!-- localeconv -->
<g id="node61" class="node"><title>localeconv</title>
<ellipse fill="#ccd1ff" stroke="#ccd1ff" cx="1320" cy="-505" rx="48.6179" ry="18"/>
<text text-anchor="middle" x="1320" y="-501.3" font-family="Times,serif" font-size="14.00">localeconv</text>
</g>
<!-- doprnt&#45;&gt;localeconv -->
<g id="edge84" class="edge"><title>doprnt&#45;&gt;localeconv</title>
<path fill="none" stroke="#3542b2" d="M1388.61,-642.335C1375.26,-615.804 1349.06,-563.744 1333.18,-532.194"/>
<polygon fill="#3542b2" stroke="#3542b2" points="1336.23,-530.471 1328.61,-523.111 1329.98,-533.617 1336.23,-530.471"/>
</g>
</g>
</svg>
