<?xml version="1.0" encoding="UTF-8" standalone="no"?>
<!DOCTYPE svg PUBLIC "-//W3C//DTD SVG 1.1//EN"
 "http://www.w3.org/Graphics/SVG/1.1/DTD/svg11.dtd">
<!-- Generated by graphviz version 2.36.0 (20140111.2315)
 -->
<!-- Title: runtime_info Pages: 1 -->
<svg width="286pt" height="292pt"
 viewBox="0.00 0.00 286.00 292.00" xmlns="http://www.w3.org/2000/svg" xmlns:xlink="http://www.w3.org/1999/xlink">
<g id="graph0" class="graph" transform="scale(1 1) rotate(0) translate(4 288)">
<title>runtime_info</title>
<polygon fill="white" stroke="none" points="-4,4 -4,-288 282,-288 282,4 -4,4"/>
<!-- mark -->
<g id="node1" class="node"><title>mark</title>
<text text-anchor="start" x="10.5" y="-262.3" font-family="Times,serif" font-size="14.00">markstack</text>
<polygon fill="#ffcccc" stroke="none" points="70,-255 70,-277 88,-277 88,-255 70,-255"/>
<polygon fill="none" stroke="black" points="70,-255 70,-277 88,-277 88,-255 70,-255"/>
<text text-anchor="start" x="73" y="-262.3" font-family="Times,serif" font-size="14.00">...</text>
<polygon fill="#ffcccc" stroke="none" points="88,-255 88,-277 123,-277 123,-255 88,-255"/>
<polygon fill="none" stroke="black" points="88,-255 88,-277 123,-277 123,-255 88,-255"/>
<text text-anchor="start" x="91" y="-262.3" font-family="Times,serif" font-size="14.00">mark</text>
</g>
<!-- stack -->
<g id="node2" class="node"><title>stack</title>
<text text-anchor="start" x="66.5" y="-190.3" font-family="Times,serif" font-size="14.00">stack</text>
<polygon fill="#ffcccc" stroke="none" points="97,-183 97,-205 115,-205 115,-183 97,-183"/>
<polygon fill="none" stroke="black" points="97,-183 97,-205 115,-205 115,-183 97,-183"/>
<text text-anchor="start" x="100" y="-190.3" font-family="Times,serif" font-size="14.00">...</text>
<polygon fill="#ffcccc" stroke="none" points="115,-183 115,-205 146,-205 146,-183 115,-183"/>
<polygon fill="none" stroke="black" points="115,-183 115,-205 146,-205 146,-183 115,-183"/>
<text text-anchor="start" x="118" y="-190.3" font-family="Times,serif" font-size="14.00">SV*</text>
<polygon fill="#ffcccc" stroke="none" points="146,-183 146,-205 177,-205 177,-183 146,-183"/>
<polygon fill="none" stroke="black" points="146,-183 146,-205 177,-205 177,-183 146,-183"/>
<text text-anchor="start" x="149" y="-190.3" font-family="Times,serif" font-size="14.00">SV*</text>
<polygon fill="#ffcccc" stroke="none" points="177,-183 177,-205 208,-205 208,-183 177,-183"/>
<polygon fill="none" stroke="black" points="177,-183 177,-205 208,-205 208,-183 177,-183"/>
<text text-anchor="start" x="180" y="-190.3" font-family="Times,serif" font-size="14.00">SV*</text>
</g>
<!-- mark&#45;&gt;stack -->
<g id="edge1" class="edge"><title>mark:mark&#45;&gt;stack:pre</title>
<path fill="none" stroke="black" stroke-dasharray="5,2" d="M106,-254C106,-236.5 106,-229.767 106,-216.136"/>
<polygon fill="none" stroke="black" points="109.5,-216 106,-206 102.5,-216 109.5,-216"/>
</g>
<!-- undef_sv -->
<g id="node3" class="node"><title>undef_sv</title>
<polygon fill="none" stroke="black" points="29,-103 29,-125 94,-125 94,-103 29,-103"/>
<text text-anchor="start" x="32.5" y="-110.3" font-family="Times,serif" font-size="14.00">SV(undef)</text>
</g>
<!-- stack&#45;&gt;undef_sv -->
<g id="edge2" class="edge"><title>stack:undef&#45;&gt;undef_sv:body</title>
<path fill="none" stroke="black" stroke-dasharray="5,2" d="M130,-182C130,-159.212 110.383,-141.574 92.2218,-130.129"/>
<polygon fill="none" stroke="black" points="93.9104,-127.062 83.5156,-125.012 90.3635,-133.097 93.9104,-127.062"/>
</g>
<!-- anonhash_sv -->
<g id="node4" class="node"><title>anonhash_sv</title>
<polygon fill="none" stroke="black" points="128,-113 128,-135 196,-135 196,-113 128,-113"/>
<text text-anchor="start" x="141" y="-120.3" font-family="Times,serif" font-size="14.00">SV(ref)</text>
<polygon fill="none" stroke="black" points="128,-92 128,-113 196,-113 196,-92 128,-92"/>
<text text-anchor="start" x="131.5" y="-98.8" font-family="Times,serif" font-size="14.00">SvRV:SV*</text>
</g>
<!-- stack&#45;&gt;anonhash_sv -->
<g id="edge3" class="edge"><title>stack:anonhash&#45;&gt;anonhash_sv:body</title>
<path fill="none" stroke="black" stroke-dasharray="5,2" d="M162,-182C162,-165.389 162,-158.9 162,-146.085"/>
<polygon fill="none" stroke="black" points="165.5,-146 162,-136 158.5,-146 165.5,-146"/>
</g>
<!-- padsv_sv -->
<g id="node5" class="node"><title>padsv_sv</title>
<polygon fill="none" stroke="black" points="230,-103 230,-125 270,-125 270,-103 230,-103"/>
<text text-anchor="start" x="233.5" y="-110.3" font-family="Times,serif" font-size="14.00">SV(?)</text>
</g>
<!-- stack&#45;&gt;padsv_sv -->
<g id="edge4" class="edge"><title>stack:padsv&#45;&gt;padsv_sv:body</title>
<path fill="none" stroke="black" stroke-dasharray="5,2" d="M193,-182C193,-160.868 209.654,-143.005 224.957,-131.052"/>
<polygon fill="none" stroke="black" points="227.189,-133.756 233.206,-125.036 223.064,-128.1 227.189,-133.756"/>
</g>
<!-- hash_sv -->
<g id="node6" class="node"><title>hash_sv</title>
<polygon fill="none" stroke="black" points="131,-25 131,-47 192,-47 192,-25 131,-25"/>
<text text-anchor="start" x="134.5" y="-32.3" font-family="Times,serif" font-size="14.00">HV(hash)</text>
<polygon fill="none" stroke="black" points="131,-4 131,-25 192,-25 192,-4 131,-4"/>
<text text-anchor="start" x="155.5" y="-10.8" font-family="Times,serif" font-size="14.00">...</text>
</g>
<!-- anonhash_sv&#45;&gt;hash_sv -->
<g id="edge5" class="edge"><title>anonhash_sv:rv&#45;&gt;hash_sv:body</title>
<path fill="none" stroke="black" d="M162,-91C162,-75.7708 162,-69.6435 162,-58.1119"/>
<polygon fill="black" stroke="black" points="165.5,-58 162,-48 158.5,-58 165.5,-58"/>
</g>
</g>
</svg>
