<?xml version="1.0" encoding="UTF-8" standalone="no"?>
<!DOCTYPE svg PUBLIC "-//W3C//DTD SVG 1.1//EN"
 "http://www.w3.org/Graphics/SVG/1.1/DTD/svg11.dtd">
<!-- Generated by graphviz version 2.36.0 (20140111.2315)
 -->
<!-- Title: static_info Pages: 1 -->
<svg width="318pt" height="152pt"
 viewBox="0.00 0.00 318.00 152.00" xmlns="http://www.w3.org/2000/svg" xmlns:xlink="http://www.w3.org/1999/xlink">
<g id="graph0" class="graph" transform="scale(1 1) rotate(0) translate(4 148)">
<title>static_info</title>
<polygon fill="white" stroke="none" points="-4,4 -4,-148 314,-148 314,4 -4,4"/>
<!-- t1 -->
<g id="node1" class="node"><title>t1</title>
<polygon fill="none" stroke="black" points="52,-115 52,-137 114,-137 114,-115 52,-115"/>
<text text-anchor="start" x="55.5" y="-122.3" font-family="Times,serif" font-size="14.00">pushmark</text>
<polygon fill="none" stroke="black" points="114,-115 114,-137 163,-137 163,-115 114,-115"/>
<text text-anchor="start" x="117" y="-122.3" font-family="Times,serif" font-size="14.00">anonlist</text>
<polygon fill="none" stroke="black" points="163,-115 163,-137 200,-137 200,-115 163,-115"/>
<text text-anchor="start" x="166" y="-122.3" font-family="Times,serif" font-size="14.00">rv2cv</text>
</g>
<!-- t2 -->
<g id="node2" class="node"><title>t2</title>
<polygon fill="none" stroke="black" points="8,-25 8,-68 70,-68 70,-25 8,-25"/>
<text text-anchor="start" x="11.5" y="-42.8" font-family="Times,serif" font-size="14.00">pushmark</text>
<polygon fill="none" stroke="black" points="70,-25 70,-68 122,-68 122,-25 70,-25"/>
<text text-anchor="start" x="80.5" y="-42.8" font-family="Times,serif" font-size="14.00">undef</text>
<polygon fill="none" stroke="black" points="122,-25 122,-68 180,-68 180,-25 122,-25"/>
<text text-anchor="start" x="125" y="-42.8" font-family="Times,serif" font-size="14.00">anonhash</text>
<polygon fill="none" stroke="black" points="180,-46 180,-68 230,-68 230,-46 180,-46"/>
<text text-anchor="start" x="189" y="-53.3" font-family="Times,serif" font-size="14.00">padsv</text>
<polygon fill="none" stroke="black" points="180,-25 180,-46 230,-46 230,-25 180,-25"/>
<text text-anchor="start" x="192" y="-31.8" font-family="Times,serif" font-size="14.00">&quot;$x&quot;</text>
<polygon fill="#cccccc" stroke="none" points="70,-4 70,-25 122,-25 122,-4 70,-4"/>
<polygon fill="none" stroke="black" points="70,-4 70,-25 122,-25 122,-4 70,-4"/>
<text text-anchor="start" x="73" y="-10.8" font-family="Times,serif" font-size="14.00">constant</text>
<polygon fill="#cccccc" stroke="none" points="122,-4 122,-25 180,-25 180,-4 122,-4"/>
<polygon fill="none" stroke="black" points="122,-4 122,-25 180,-25 180,-4 122,-4"/>
<text text-anchor="start" x="132" y="-10.8" font-family="Times,serif" font-size="14.00">pattern</text>
<polygon fill="#cccccc" stroke="none" points="180,-4 180,-25 230,-25 230,-4 180,-4"/>
<polygon fill="none" stroke="black" points="180,-4 180,-25 230,-25 230,-4 180,-4"/>
<text text-anchor="start" x="183" y="-10.8" font-family="Times,serif" font-size="14.00">variable</text>
</g>
<!-- t1&#45;&gt;t2 -->
<g id="edge1" class="edge"><title>t1:anonlist&#45;&gt;t2:pushmark</title>
<path fill="none" stroke="black" d="M139,-114C139,-69.2608 54.7333,-109.809 40.9083,-79.0624"/>
<polygon fill="black" stroke="black" points="44.3021,-78.1727 39,-69 37.4247,-79.4771 44.3021,-78.1727"/>
</g>
<!-- t3 -->
<g id="node3" class="node"><title>t3</title>
<polygon fill="none" stroke="black" points="264,-35 264,-57 302,-57 302,-35 264,-35"/>
<text text-anchor="start" x="276" y="-42.3" font-family="Times,serif" font-size="14.00">gv</text>
<polygon fill="none" stroke="black" points="264,-14 264,-35 302,-35 302,-14 264,-14"/>
<text text-anchor="start" x="267.5" y="-20.8" font-family="Times,serif" font-size="14.00">&quot;des&quot;</text>
</g>
<!-- t1&#45;&gt;t3 -->
<g id="edge2" class="edge"><title>t1:rv2cv&#45;&gt;t3:gv</title>
<path fill="none" stroke="black" d="M201,-126C232.527,-126 228.461,-97.5007 247,-72 252.111,-64.9694 251.672,-56.2763 254.263,-50.9362"/>
<polygon fill="black" stroke="black" points="256.015,-53.9663 263,-46 252.572,-47.8717 256.015,-53.9663"/>
</g>
</g>
</svg>
