<?xml version="1.0" encoding="UTF-8" standalone="no"?>
<!DOCTYPE svg PUBLIC "-//W3C//DTD SVG 1.1//EN"
 "http://www.w3.org/Graphics/SVG/1.1/DTD/svg11.dtd">
<!-- Generated by graphviz version 2.36.0 (20140111.2315)
 -->
<!-- Title: svop Pages: 1 -->
<svg width="335pt" height="154pt"
 viewBox="0.00 0.00 335.00 154.00" xmlns="http://www.w3.org/2000/svg" xmlns:xlink="http://www.w3.org/1999/xlink">
<g id="graph0" class="graph" transform="scale(1 1) rotate(0) translate(4 150)">
<title>svop</title>
<polygon fill="white" stroke="none" points="-4,4 -4,-150 331,-150 331,4 -4,4"/>
<!-- t1 -->
<g id="node1" class="node"><title>t1</title>
<polygon fill="#ffff00" stroke="none" points="7,-92 7,-141 69,-141 69,-92 7,-92"/>
<polygon fill="none" stroke="black" points="7,-92 7,-141 69,-141 69,-92 7,-92"/>
<text text-anchor="start" x="10.5" y="-112.8" font-family="Times,serif" font-size="14.00">pushmark</text>
<polygon fill="#00ff00" stroke="none" points="69,-92 69,-141 118,-141 118,-92 69,-92"/>
<polygon fill="none" stroke="black" points="69,-92 69,-141 118,-141 118,-92 69,-92"/>
<text text-anchor="start" x="72" y="-112.8" font-family="Times,serif" font-size="14.00">anonlist</text>
<polygon fill="none" stroke="black" points="118,-119 118,-141 270,-141 270,-119 118,-119"/>
<text text-anchor="start" x="183" y="-126.3" font-family="Times,serif" font-size="14.00">null</text>
<polygon fill="none" stroke="black" points="270,-92 270,-141 307,-141 307,-92 270,-92"/>
<text text-anchor="start" x="273" y="-112.8" font-family="Times,serif" font-size="14.00">rv2cv</text>
<polygon fill="none" stroke="black" points="118,-92 118,-119 270,-119 270,-92 118,-92"/>
<polygon fill="#cccccc" stroke="none" points="121,-95 121,-116 173,-116 173,-95 121,-95"/>
<polygon fill="none" stroke="black" points="121,-95 121,-116 173,-116 173,-95 121,-95"/>
<text text-anchor="start" x="124" y="-101.8" font-family="Times,serif" font-size="14.00">constant</text>
<polygon fill="#cccccc" stroke="none" points="173,-95 173,-116 217,-116 217,-95 173,-95"/>
<polygon fill="none" stroke="black" points="173,-95 173,-116 217,-116 217,-95 173,-95"/>
<text text-anchor="start" x="176" y="-101.8" font-family="Times,serif" font-size="14.00">pattern</text>
<polygon fill="#cccccc" stroke="none" points="217,-95 217,-116 267,-116 267,-95 217,-95"/>
<polygon fill="none" stroke="black" points="217,-95 217,-116 267,-116 267,-95 217,-95"/>
<text text-anchor="start" x="220" y="-101.8" font-family="Times,serif" font-size="14.00">variable</text>
</g>
<!-- t2 -->
<g id="node2" class="node"><title>t2</title>
<polygon fill="#ffff00" stroke="none" points="52,-4 52,-47 114,-47 114,-4 52,-4"/>
<polygon fill="none" stroke="black" points="52,-4 52,-47 114,-47 114,-4 52,-4"/>
<text text-anchor="start" x="55.5" y="-21.8" font-family="Times,serif" font-size="14.00">pushmark</text>
<polygon fill="#ffff00" stroke="none" points="114,-4 114,-47 151,-47 151,-4 114,-4"/>
<polygon fill="none" stroke="black" points="114,-4 114,-47 151,-47 151,-4 114,-4"/>
<text text-anchor="start" x="117" y="-21.8" font-family="Times,serif" font-size="14.00">undef</text>
<polygon fill="#ffff00" stroke="none" points="151,-4 151,-47 209,-47 209,-4 151,-4"/>
<polygon fill="none" stroke="black" points="151,-4 151,-47 209,-47 209,-4 151,-4"/>
<text text-anchor="start" x="154" y="-21.8" font-family="Times,serif" font-size="14.00">anonhash</text>
<polygon fill="#ffff00" stroke="none" points="209,-25 209,-47 247,-47 247,-25 209,-25"/>
<polygon fill="none" stroke="black" points="209,-25 209,-47 247,-47 247,-25 209,-25"/>
<text text-anchor="start" x="212" y="-32.3" font-family="Times,serif" font-size="14.00">padsv</text>
<polygon fill="#ffff00" stroke="none" points="209,-4 209,-25 247,-25 247,-4 209,-4"/>
<polygon fill="none" stroke="black" points="209,-4 209,-25 247,-25 247,-4 209,-4"/>
<text text-anchor="start" x="221" y="-10.8" font-family="Times,serif" font-size="14.00">$x</text>
</g>
<!-- t1&#45;&gt;t2 -->
<g id="edge1" class="edge"><title>t1:anonlist&#45;&gt;t2:pushmark</title>
<path fill="none" stroke="black" d="M93,-91C93,-75.3644 86.6499,-69.8022 84.0702,-58.259"/>
<polygon fill="black" stroke="black" points="87.5187,-57.5829 83,-48 80.5565,-58.3092 87.5187,-57.5829"/>
</g>
<!-- t3 -->
<g id="node3" class="node"><title>t3</title>
<polygon fill="none" stroke="black" points="281,-25 281,-47 319,-47 319,-25 281,-25"/>
<text text-anchor="start" x="293" y="-32.3" font-family="Times,serif" font-size="14.00">gv</text>
<polygon fill="none" stroke="black" points="281,-4 281,-25 319,-25 319,-4 281,-4"/>
<text text-anchor="start" x="284.5" y="-10.8" font-family="Times,serif" font-size="14.00">&quot;des&quot;</text>
</g>
<!-- t1&#45;&gt;t3 -->
<g id="edge2" class="edge"><title>t1:rv2cv&#45;&gt;t3:gv</title>
<path fill="none" stroke="black" d="M289,-91C289,-72.0358 269.205,-49.8705 271.042,-40.5223"/>
<polygon fill="black" stroke="black" points="272.651,-43.6313 280,-36 269.496,-37.3825 272.651,-43.6313"/>
</g>
</g>
</svg>
